<svg xmlns="http://www.w3.org/2000/svg" xmlns:xlink="http://www.w3.org/1999/xlink" width="23.691" height="21.927" viewBox="0 0 23.691 21.927"><defs><style>.a{fill:url(#a);}</style><linearGradient id="a" x1="0.143" y1="0.125" x2="1" y2="1" gradientUnits="objectBoundingBox"><stop offset="0" stop-color="#02bbee"/><stop offset="1" stop-color="#2836f6"/></linearGradient></defs><g transform="translate(0 0)"><path class="a" d="M96.417,101.9a.751.751,0,1,0-1.448.4,9.394,9.394,0,0,1,.311,1.755.021.021,0,0,1-.008.019.045.045,0,0,1-.029.012c-2.563,0-5.035-.023-7.427-.041-4.463-.034-8.318-.066-11.376.016a.037.037,0,0,1-.029-.012.019.019,0,0,1-.007-.018,9.523,9.523,0,0,1,9.437-8.664,5.86,5.86,0,1,0-3.272-1,10.969,10.969,0,0,0-7.66,9.539,1.535,1.535,0,0,0,1.573,1.657c3.032-.081,6.875-.051,11.324-.016,2.393.019,4.867.038,7.436.041h0a1.549,1.549,0,0,0,1.134-.5,1.527,1.527,0,0,0,.4-1.159,11.217,11.217,0,0,0-.363-2.032ZM81.49,89.516a4.352,4.352,0,1,1,4.352,4.352A4.358,4.358,0,0,1,81.49,89.516Z" transform="translate(-74.904 -83.661)"/><path class="a" d="M539.111,480.435h-8.5l1.917-2a.751.751,0,0,0-1.084-1.041l-2.847,2.968a1.2,1.2,0,0,0-.019,1.637l2.562,2.8a.751.751,0,0,0,1.109-1.013l-1.693-1.852h8.556a.751.751,0,1,0,0-1.5Z" transform="translate(-516.173 -466.669)"/></g></svg>