<svg xmlns="http://www.w3.org/2000/svg" xmlns:xlink="http://www.w3.org/1999/xlink" width="23.9" height="23.879" viewBox="0 0 23.9 23.879"><defs><style>.a{fill:url(#a);}</style><linearGradient id="a" x1="0.143" y1="0.125" x2="1" y2="1" gradientUnits="objectBoundingBox"><stop offset="0" stop-color="#02bbee"/><stop offset="1" stop-color="#2836f6"/></linearGradient></defs><path class="a" d="M61.657,74.243a5.121,5.121,0,1,0-5.121-5.121A5.121,5.121,0,0,0,61.657,74.243Zm0-8.542a3.422,3.422,0,1,1-3.422,3.422A3.422,3.422,0,0,1,61.657,65.7Zm-5.121,8.542a4.93,4.93,0,0,0,.577-.058,6.822,6.822,0,0,1-1.393-1.75,3.408,3.408,0,0,1,0-6.624,6.822,6.822,0,0,1,1.393-1.75A4.29,4.29,0,0,0,56.536,64a5.121,5.121,0,0,0,0,10.243Zm-.965,1.8A8.506,8.506,0,0,0,48,84.485a.854.854,0,1,0,1.707,0,6.8,6.8,0,0,1,3.337-5.84,9.884,9.884,0,0,1,2.527-2.6ZM66.13,79.364h2.317A8.511,8.511,0,0,0,53.12,84.485a.854.854,0,0,0,1.707,0,6.8,6.8,0,0,1,11.3-5.121Zm5.627,2.969a.84.84,0,0,0-.71-.408c-.019,0-.034.01-.051.01s-.049-.012-.075-.01H68.485a.854.854,0,1,0,0,1.707H68.9l-2.137,2.139-3.6-3.6a.888.888,0,0,0-.669-.253.874.874,0,0,0-.659.251l-4.206,4.208a.884.884,0,0,0,1.25,1.25l3.609-3.607,3.6,3.6a1.013,1.013,0,0,0,1.338,0l2.759-2.759v.473a.854.854,0,1,0,1.707,0V82.778a.823.823,0,0,0-.143-.446Z" transform="translate(-48 -64)"/></svg>