<svg xmlns="http://www.w3.org/2000/svg" width="66.051" height="35.228" viewBox="0 0 66.051 35.228"><defs><style>.a,.b,.c{fill:none;}.a,.c{stroke:#2836f6;stroke-width:1.5px;}.c{stroke-linecap:round;}.d,.e{stroke:none;}.e{fill:#2836f6;}</style></defs><g transform="translate(-1615.228 -359.175)"><g transform="translate(1631.906 360)"><path class="a" d="M38.485,45.095H36.272a6.271,6.271,0,0,0-.983-1.661L36.408,41.5a.775.775,0,0,0-.284-1.058L33.6,38.983a.775.775,0,0,0-1.058.284L31.411,41.23a6.29,6.29,0,0,0-1.887,0L28.39,39.266a.775.775,0,0,0-1.058-.284l-2.521,1.456a.775.775,0,0,0-.284,1.058l1.118,1.937a6.272,6.272,0,0,0-.983,1.661H22.45a.775.775,0,0,0-.775.775v2.911a.775.775,0,0,0,.775.775H24.6a6.262,6.262,0,0,0,.992,1.756l-1.063,1.842a.775.775,0,0,0,.284,1.058l2.521,1.456a.775.775,0,0,0,1.058-.284l1.047-1.814a6.271,6.271,0,0,0,2.06,0l1.047,1.814a.775.775,0,0,0,1.058.284l2.521-1.456a.774.774,0,0,0,.284-1.058l-1.063-1.842a6.259,6.259,0,0,0,.992-1.756h2.149a.775.775,0,0,0,.775-.775V45.869a.775.775,0,0,0-.775-.775Zm-4.542,2.312a3.476,3.476,0,1,1-3.475-3.475A3.479,3.479,0,0,1,33.943,47.407Z" transform="translate(-5.216 -38.879)"/><g class="b" transform="translate(0 19.22)"><path class="d" d="M8.6,15.183H2.023A2.023,2.023,0,0,1,0,13.16V6.078A2.024,2.024,0,0,1,2.023,4.055H4.9C5.516,4.055,7.889,0,9.571,0h.1l.011.008H18.21a2.529,2.529,0,1,1,0,5.058H14.788a1.286,1.286,0,0,0-1.131,1.266v.32A1.313,1.313,0,0,0,14.865,8.1h6.481a7.307,7.307,0,0,0,1.579-.924l6.49-5.642A3.288,3.288,0,0,1,33.729,6.5l-5.765,5.012c-.605.653-3.549,3.674-6.213,3.674Z"/><path class="e" d="M 21.75119972229004 13.6830005645752 C 23.23802947998047 13.6830005645752 25.39031982421875 12.07882022857666 26.86376953125 10.48900032043457 L 26.91877937316895 10.42963981628418 L 32.74523162841797 5.365020275115967 C 33.10543060302734 5.051920413970947 33.32215118408203 4.617120265960693 33.3554801940918 4.140720367431641 C 33.38880920410156 3.664400339126587 33.23471069335938 3.203850269317627 32.92126083374023 2.843520164489746 C 32.58119964599609 2.452340364456177 32.08866119384766 2.227990388870239 31.5699291229248 2.227990388870239 C 31.14002990722656 2.227990388870239 30.72413063049316 2.383740186691284 30.39883995056152 2.666520357131958 L 23.90647888183594 8.310750007629395 C 23.65725898742676 8.526460647583008 22.92675018310547 9.047540664672852 21.94577026367188 9.475669860839844 L 21.65884017944336 9.600900650024414 L 14.81410980224609 9.600900650024414 L 14.76369953155518 9.597499847412109 C 13.78201961517334 9.53130054473877 13.18385982513428 9.066590309143066 12.85493946075439 8.688410758972168 C 12.17459869384766 7.906173706054688 12.14597511291504 6.93887996673584 12.15749931335449 6.618485450744629 L 12.15758991241455 6.315590381622314 C 12.17129993438721 5.092460155487061 13.02079963684082 3.758620262145996 14.61786937713623 3.575830221176147 L 14.70287990570068 3.566100358963013 L 18.2096996307373 3.566100358963013 C 18.77709007263184 3.566100358963013 19.23869895935059 3.104490280151367 19.23869895935059 2.537100315093994 C 19.23869895935059 1.969710230827332 18.77709007263184 1.508100271224976 18.2096996307373 1.508100271224976 L 9.600000381469727 1.508100271224976 C 9.505845069885254 1.548636674880981 9.238141059875488 1.6932532787323 8.749489784240723 2.170350313186646 C 8.278929710388184 2.629780292510986 7.794249534606934 3.209090232849121 7.36661958694458 3.720210313796997 C 6.409599781036377 4.864070415496826 5.831949710845947 5.554500102996826 4.897799968719482 5.554500102996826 L 2.023199796676636 5.554500102996826 C 1.734209775924683 5.554500102996826 1.499099731445312 5.789210319519043 1.499099731445312 6.077700138092041 L 1.499099731445312 13.15980052947998 C 1.499099731445312 13.44828987121582 1.734209775924683 13.6830005645752 2.023199796676636 13.6830005645752 L 21.75119972229004 13.6830005645752 M 21.75119972229004 15.1830005645752 C 18.76409912109375 15.1830005645752 8.598599433898926 15.1830005645752 8.598599433898926 15.1830005645752 L 2.023199796676636 15.1830005645752 C 0.9053997397422791 15.1830005645752 -0.0009002594160847366 14.27760028839111 -0.0009002594160847366 13.15980052947998 L -0.0009002594160847366 6.077700138092041 C -0.0009002594160847366 4.960800170898438 0.9053997397422791 4.054500102996826 2.023199796676636 4.054500102996826 C 2.023199796676636 4.054500102996826 4.280399799346924 4.054500102996826 4.897799968719482 4.054500102996826 C 5.51609992980957 4.054500102996826 7.888499736785889 2.822876012942288e-07 9.570599555969238 2.822876012942288e-07 C 10.15549945831299 2.822876012942288e-07 10.34640884399414 2.822876012942288e-07 10.34640884399414 2.822876012942288e-07 L 9.674099922180176 2.822876012942288e-07 C 9.674099922180176 2.822876012942288e-07 9.677700042724609 0.002730282256379724 9.684749603271484 0.008100282400846481 L 18.2096996307373 0.008100282400846481 C 19.60650062561035 0.008100282400846481 20.73869895935059 1.140300273895264 20.73869895935059 2.537100315093994 C 20.73869895935059 3.933900356292725 19.60650062561035 5.066100120544434 18.2096996307373 5.066100120544434 L 14.78843975067139 5.066100120544434 C 13.67025947570801 5.194080352783203 13.65749931335449 6.332400321960449 13.65749931335449 6.332400321960449 L 13.65749931335449 6.6528000831604 C 13.65749931335449 6.6528000831604 13.5597095489502 8.012900352478027 14.8646297454834 8.100900650024414 L 21.34576988220215 8.100900650024414 C 22.15526008605957 7.747610092163086 22.76934051513672 7.311160087585449 22.9247989654541 7.176600456237793 L 29.41469955444336 1.534500241279602 C 30.78539848327637 0.3429006338119507 32.86170196533203 0.4886999130249023 34.05329895019531 1.859400272369385 C 35.24489974975586 3.22920036315918 35.09909820556641 5.306400299072266 33.72930145263672 6.497100353240967 L 27.96393013000488 11.50863075256348 C 27.35857963562012 12.161789894104 24.41460990905762 15.1830005645752 21.75119972229004 15.1830005645752 Z"/></g></g>

</g></svg>