<svg xmlns="http://www.w3.org/2000/svg" width="25.382" height="25.853" viewBox="0 0 25.382 25.853"><defs><style>.a{fill:#2836f6;}</style></defs><path class="a" d="M97.9,80.362a7.247,7.247,0,0,0-1.437-.674l-.058-.023c-.281-.11-.662-.234-1.1-.382-.043-.014-.09-.029-.136-.046a9.593,9.593,0,0,0,1.521-2.814,12.707,12.707,0,0,0,.691-4.147,11.175,11.175,0,1,0-22.351,0,9.264,9.264,0,0,0,.119,1.516.867.867,0,1,0,1.715-.257,7.441,7.441,0,0,1-.1-1.258,9.44,9.44,0,1,1,16.7,6.264.864.864,0,0,0-.069.081,13.558,13.558,0,0,1-2.453-1.166,4.882,4.882,0,0,0-2.267-.827,2.7,2.7,0,0,0-1.892.535,2.214,2.214,0,0,0-.775,1.2,2.487,2.487,0,0,0,.093,1.466A3.564,3.564,0,0,0,86.825,81a10.134,10.134,0,0,1-4.778-1.348,20.012,20.012,0,0,1-3.17-2.774c-.474-.483-.882-.9-1.267-1.22a2.419,2.419,0,0,0-1.385-.538,2.645,2.645,0,0,0-2.513,1.44,3.085,3.085,0,0,0-.286,1.753c.127,1.087,1.059,2.418,2.849,4.066a30.325,30.325,0,0,0,3.734,2.927,11.428,11.428,0,0,0,6.516,1.643h9.8a2.548,2.548,0,0,0,1.747-.523,2.456,2.456,0,0,0,.683-1.906c0-.711.009-1.2.017-1.634.006-.341.012-.633.012-.969A1.826,1.826,0,0,0,97.9,80.362Zm-.865,2.5c-.009.44-.017.937-.017,1.666,0,.5-.1.607-.1.61s-.1.084-.6.084h-9.8a9.835,9.835,0,0,1-5.579-1.365,29.036,29.036,0,0,1-3.5-2.742c-2.027-1.871-2.273-2.765-2.3-2.993a1.048,1.048,0,0,1,.486-1.151.9.9,0,0,1,.428-.113.7.7,0,0,1,.445.15c.321.266.7.654,1.14,1.1a21.1,21.1,0,0,0,3.453,3,13.1,13.1,0,0,0,7.178,1.66,3.055,3.055,0,0,0,.625-.064,1.014,1.014,0,0,0,.79-.668,1.043,1.043,0,0,0-.33-1.108,5.54,5.54,0,0,0-.445-.379,3.523,3.523,0,0,1-1.177-1.3.63.63,0,0,1,.133-.729c.471-.376,1.414-.075,2.14.39a22.112,22.112,0,0,0,4.746,2.013c.419.139.781.257,1.018.35l.058.023a8.286,8.286,0,0,1,.937.4.738.738,0,0,1,.272.2v.017c.006.324,0,.61-.006.943Z" transform="translate(-73.403 -61.1)"/><path class="a" d="M327.144,234.807a11.905,11.905,0,0,0,1.481-2.753v4.685h1.041V231.66a15.021,15.021,0,0,1,.925,1.411l.6-.856c-.22-.278-1.215-1.3-1.527-1.585v-.243h1.469v-.995h-1.469v-1.9a10.889,10.889,0,0,0,1.423-.428l-.625-.868a17.653,17.653,0,0,1-3.6.926,3.49,3.49,0,0,1,.312.833c.463-.058.949-.139,1.446-.231v1.666h-1.793v.995h1.608a11.813,11.813,0,0,1-1.839,3.378A8.068,8.068,0,0,1,327.144,234.807Z" transform="translate(-319.277 -221.425)"/><path class="a" d="M455.4,233.6a2.7,2.7,0,0,1,.648.845c2-.914,2.476-2.568,2.649-4.6h.81v3.135c0,.972.2,1.273,1.064,1.273h.879c.729,0,.983-.4,1.064-1.944a3.069,3.069,0,0,1-.879-.416c-.035,1.238-.069,1.423-.289,1.423h-.613c-.208,0-.243-.035-.243-.347v-3.124h1.388v-3.76h-1.192c.312-.567.636-1.273.925-1.932L460.5,223.8a16.148,16.148,0,0,1-.914,2.279h-1.481l.706-.312a8.682,8.682,0,0,0-1.041-1.944l-.9.382a8.482,8.482,0,0,1,.96,1.874h-1.319v3.76h1.157C457.517,231.5,457.17,232.87,455.4,233.6Zm2.129-4.708v-1.874h3.286v1.874Z" transform="translate(-444.352 -219.094)"/></svg>