<svg xmlns="http://www.w3.org/2000/svg" width="27.019" height="27.019" viewBox="0 0 27.019 27.019"><defs><style>.a{fill:#2836f6;}</style></defs><path class="a" d="M512.36,333.032A.574.574,0,0,0,512.6,333l4.728-1.756a.684.684,0,0,0-.473-1.283l-4.728,1.756a.679.679,0,0,0,.236,1.317Zm0,5.4a.575.575,0,0,0,.236-.034l4.728-1.756a.689.689,0,0,0,.405-.878.663.663,0,0,0-.878-.405l-4.728,1.756a.679.679,0,0,0,.236,1.317Z" transform="translate(-498.175 -321.211)"/><path class="a" d="M26.715,2.769a.567.567,0,0,0-.608-.068L22.966,3.85V.675a.573.573,0,0,0-.3-.54.567.567,0,0,0-.608-.068L11.483,4.019l-2.33-.878a.118.118,0,0,1-.068-.034L3.749,1.115a.118.118,0,0,1-.068-.034L.912.034A.655.655,0,0,0,.3.135a.573.573,0,0,0-.3.54V20.94a.693.693,0,0,0,.439.642l10.808,4.053a.844.844,0,0,0,.473,0L12.9,25.2l4.762,1.79a.844.844,0,0,0,.473,0l8.444-3.175a.66.66,0,0,0,.439-.642V3.31a.573.573,0,0,0-.3-.54ZM4.154,2.7l4.053,1.52v7.025L6.721,9.389a.67.67,0,0,0-.844-.169L4.154,10.1Zm7.329,21.582L1.351,20.467V1.655L2.8,2.2v8.95a.752.752,0,0,0,.3.574.627.627,0,0,0,.642.034l2.229-1.115,2.364,2.938a.705.705,0,0,0,.54.27.648.648,0,0,0,.675-.675V4.728l1.689.642a.576.576,0,0,0,.473,0l9.9-3.715V20.467l-8.849,3.31a.258.258,0,0,0-.169.068ZM25.668,22.7,17.9,25.6l-3.073-1.148,7.7-2.871a.66.66,0,0,0,.439-.642V5.3l2.7-1.013V22.7Z" transform="translate(0 0)"/></svg>