<svg xmlns="http://www.w3.org/2000/svg" xmlns:xlink="http://www.w3.org/1999/xlink" width="22.163" height="22.163" viewBox="0 0 22.163 22.163"><defs><style>.a{fill:url(#a);}</style><linearGradient id="a" x1="0.143" y1="0.125" x2="1" y2="1" gradientUnits="objectBoundingBox"><stop offset="0" stop-color="#02bbee"/><stop offset="1" stop-color="#2836f6"/></linearGradient></defs><g transform="translate(0 0)"><path class="a" d="M118.512,116.456h-.854V103.671a1.709,1.709,0,0,0-1.7-1.7h-4.262V97.7a1.709,1.709,0,0,0-1.7-1.7h-9.376a1.711,1.711,0,0,0-1.7,1.7v18.752h-.854a.854.854,0,1,0,0,1.707H118.51a.854.854,0,0,0,0-1.707Zm-8.525-12.785v12.785h-9.376V97.584h9.376Zm5.967,12.785h-4.262V103.671h4.262Z" transform="translate(-97.2 -96)"/><path class="a" d="M289.854,289.407h4.262a.854.854,0,0,0,0-1.707h-4.262a.854.854,0,0,0,0,1.707Zm0,10.227h4.262a.854.854,0,0,0,0-1.707h-4.262a.854.854,0,0,0,0,1.707Zm10.229-4.26h.854a.854.854,0,0,0,0-1.707h-.854a.854.854,0,1,0,0,1.707Zm0,4.26h.854a.854.854,0,0,0,0-1.707h-.854a.854.854,0,1,0,0,1.707Zm-10.229-5.113h4.262a.854.854,0,1,0,0-1.707h-4.262a.854.854,0,0,0,0,1.707Z" transform="translate(-283.884 -282.587)"/></g></svg>