<svg xmlns="http://www.w3.org/2000/svg" xmlns:xlink="http://www.w3.org/1999/xlink" width="19.533" height="24.661" viewBox="0 0 19.533 24.661"><defs><style>.a{fill:url(#a);}</style><linearGradient id="a" x1="0.143" y1="0.125" x2="1" y2="1" gradientUnits="objectBoundingBox"><stop offset="0" stop-color="#02bbee"/><stop offset="1" stop-color="#2836f6"/></linearGradient></defs><path class="a" d="M122.855,4.753a10.172,10.172,0,0,1,14.41,0c3.98,3.989,3.053,10.457-.926,14.446l-6.278,7.223L123.782,19.2c-3.98-3.989-4.906-10.457-.927-14.446ZM130.06,23.8l4.969-5.909c3.256-3.264,4.182-8.556.926-11.82a8.323,8.323,0,0,0-11.79,0c-3.256,3.264-2.329,8.556.927,11.82Zm0-17.391a4.643,4.643,0,1,0,4.632,4.643A4.638,4.638,0,0,0,130.06,6.4Zm0,7.429a2.786,2.786,0,1,1,2.779-2.786,2.782,2.782,0,0,1-2.779,2.786Z" transform="translate(-120.294 -1.761)"/></svg>