<svg xmlns="http://www.w3.org/2000/svg" width="21.073" height="20.158" viewBox="0 0 21.073 20.158"><defs><style>.a{fill:none;stroke:#2836f6;stroke-miterlimit:10;stroke-width:1.3px;}</style></defs><g transform="translate(-5220.467 -7526.54)"><g transform="translate(5221.119 7528.152)"><circle class="a" cx="2.762" cy="2.762" r="2.762" transform="translate(1.695)"/><path class="a" d="M3631.9,196.819c-.817.611-2.279,2-2.261,3.518l-.059,3.592-6.46.009v-3.9a3.412,3.412,0,0,1,3.288-3.5h4.176a3.115,3.115,0,0,1,1.315.28Z" transform="translate(-3623.119 -188.821)"/></g><g transform="translate(5227.598 7527.19)"><circle class="a" cx="3.486" cy="3.486" r="3.486" transform="translate(2.746)"/><path class="a" d="M3644.293,200.961v5.755H3631v-5.755a4.423,4.423,0,0,1,2.778-4.11,4.374,4.374,0,0,1,1.644-.321h4.431a4.431,4.431,0,0,1,4.439,4.431Z" transform="translate(-3631 -187.857)"/></g></g></svg>