<svg xmlns="http://www.w3.org/2000/svg" width="21.542" height="21.555" viewBox="0 0 21.542 21.555"><defs><style>.a,.b{fill:none;}.a{stroke:#2836f6;stroke-width:1.3px;}.c{fill:#2836f6;}.d,.e{stroke:none;}.e{fill:#2836f6;}</style></defs><g transform="translate(-5486.48 -7529.22)"><path class="a" d="M3913.243,215.159c-.1.038-.229-.047-.312-.129l-5.153-5.144c-.083-.085,1.016-1,1.359-1.359s1.076-1.361,1.25-1.187l5.1,5.117a.447.447,0,0,1,0,.636l-1.93,1.93a.815.815,0,0,1-.318.135Z" transform="translate(1591.748 7334.949)"/><g class="b" transform="translate(1598 7341.21)"><path class="d" d="M3897.147,205.343a8.667,8.667,0,1,1,8.667-8.667,8.667,8.667,0,0,1-8.667,8.667Z"/><path class="e" d="M 3897.145263671875 204.0434112548828 C 3899.1123046875 204.0403137207031 3900.96142578125 203.2726898193359 3902.352294921875 201.8818969726562 C 3903.7431640625 200.4910278320312 3904.5107421875 198.6417999267578 3904.513427734375 196.6767272949219 C 3904.513427734375 192.6147155761719 3901.208740234375 189.3100128173828 3897.146728515625 189.3100128173828 C 3893.084716796875 189.3100128173828 3889.780029296875 192.6147155761719 3889.780029296875 196.6767272949219 C 3889.780029296875 200.7382354736328 3893.083984375 204.0426025390625 3897.145263671875 204.0434112548828 M 3897.14697265625 205.3434143066406 L 3897.146728515625 205.3434143066406 C 3892.360107421875 205.3434143066406 3888.47998046875 201.4631958007812 3888.47998046875 196.6767272949219 C 3888.47998046875 191.8902282714844 3892.360107421875 188.010009765625 3897.146728515625 188.010009765625 C 3901.933349609375 188.010009765625 3905.8134765625 191.8902282714844 3905.8134765625 196.6767272949219 C 3905.806640625 201.4602355957031 3901.930419921875 205.3361206054688 3897.14697265625 205.3434143066406 Z"/></g><path class="c" d="M3907.331,197.639a.434.434,0,0,1-.428-.428,5.956,5.956,0,0,0-5.949-5.949.434.434,0,0,1,0-.862,6.818,6.818,0,0,1,6.812,6.811.434.434,0,0,1-.435.428Z" transform="translate(1594.095 7340.841)"/><path class="c" d="M3900.787,197.143a.454.454,0,0,1-.447-.454v-1.3a.454.454,0,0,1,.9,0v1.3A.454.454,0,0,1,3900.787,197.143Z" transform="translate(1594.17 7338.956)"/><path class="c" d="M3900.787,207.463a.453.453,0,0,1-.447-.454v-1.3a.454.454,0,0,1,.9,0v1.3A.454.454,0,0,1,3900.787,207.463Z" transform="translate(1594.17 7335.623)"/><path class="c" d="M3899.993,203.3a4.019,4.019,0,0,1-.487,0,8.085,8.085,0,0,1-1.659-.427l-.115-.041a.454.454,0,0,1-.284-.569.447.447,0,0,1,.569-.278h.115a7.52,7.52,0,0,0,1.476.393,1.808,1.808,0,0,0,1.727-.494.562.562,0,0,0,.041-.6,1.78,1.78,0,0,0-1.611-.63h0a2.616,2.616,0,0,1-2.444-1.1,1.435,1.435,0,0,1,.095-1.51,2.666,2.666,0,0,1,2.6-.894,8.337,8.337,0,0,1,1.672.433h.1a.447.447,0,0,1,.285.569.454.454,0,0,1-.569.284h-.1a7.231,7.231,0,0,0-1.49-.4,1.808,1.808,0,0,0-1.753.508.541.541,0,0,0-.048.582c.21.4.826.636,1.666.63h0a2.561,2.561,0,0,1,2.4,1.1,1.468,1.468,0,0,1-.088,1.523,2.437,2.437,0,0,1-2.1.907Z" transform="translate(1595.201 7338.273)"/></g></svg>