<svg xmlns="http://www.w3.org/2000/svg" width="22.292" height="23.535" viewBox="0 0 22.292 23.535"><defs><style>.a{fill:#2836f6;}</style></defs><path class="a" d="M93.211,69.755a4.944,4.944,0,0,1,.572-.022h15.381a5.937,5.937,0,0,1,1.038.049,3.084,3.084,0,0,1,2.034,1.33,3.035,3.035,0,0,1,.48,1.232.617.617,0,0,1-.6.681h-18.1a.315.315,0,0,0-.337.279c0,.222,0,.445,0,.668a.315.315,0,0,0,.339.3h18.148a.613.613,0,0,1,.591.606q0,7.37,0,14.74a8.727,8.727,0,0,1-.023.933,3.094,3.094,0,0,1-2.774,2.7c-.258.024-.517.015-.775.017H94.023a6.369,6.369,0,0,1-.9-.034,3.094,3.094,0,0,1-2.633-2.739,5.378,5.378,0,0,1-.015-.586V73.173a6.124,6.124,0,0,1,.018-.7,3.1,3.1,0,0,1,2.721-2.723m-1.126,1.956a1.849,1.849,0,0,0-.377,1.088q0,8.7,0,17.4a1.864,1.864,0,0,0,1.513,1.793,3.937,3.937,0,0,0,.721.035H109.11c.247,0,.5.01.743-.013a1.866,1.866,0,0,0,1.659-1.632,3.375,3.375,0,0,0,.013-.424q0-7.227,0-14.454h-1.776v5.034a1.051,1.051,0,0,1-.036.386.617.617,0,0,1-.5.4.628.628,0,0,1-.451-.116L107,79.957c-.59.419-1.178.84-1.768,1.259a.62.62,0,0,1-.98-.514q0-2.6,0-5.2H94.023a1.585,1.585,0,0,1-.816-.215,1.542,1.542,0,0,1-.76-1.267c0-.231,0-.463,0-.694a1.507,1.507,0,0,1,.2-.763,1.551,1.551,0,0,1,1.029-.746,2.768,2.768,0,0,1,.586-.033q8.467,0,16.934,0a1.864,1.864,0,0,0-1.051-.751,2.346,2.346,0,0,0-.664-.067q-7.944,0-15.887,0a1.881,1.881,0,0,0-1.509.74m13.406,3.915q0,1.942,0,3.885l1.155-.823a.628.628,0,0,1,.72,0l1.145.816q0-1.941,0-3.883Z" transform="translate(-90.471 -69.732)"/><path class="a" d="M257.978,593.935c.325-.019.652,0,.978-.008h11.176a.75.75,0,0,1,.428.075.624.624,0,0,1-.294,1.169H258.1a.624.624,0,0,1-.124-1.235Zm.08,3.087q6.09-.008,12.181,0a.624.624,0,0,1,.43,1.092.6.6,0,0,1-.377.151H258.077a.622.622,0,0,1-.019-1.242Z" transform="translate(-253.034 -579.978)"/></svg>