<svg xmlns="http://www.w3.org/2000/svg" width="29.237" height="16.355" viewBox="0 0 29.237 16.355"><defs><style>.a{fill:#2836f6;}</style></defs><g transform="translate(-5212.385 -7416.11)"><path class="a" d="M3643.043,97.147h-28.079a.647.647,0,0,1,0-1.287h28.079a.647.647,0,0,1,0,1.287Z" transform="translate(1598 7335.318)"/><path class="a" d="M3620.82,93.974h-3.76a.64.64,0,0,1-.64-.64V85.427a.639.639,0,0,1,.64-.647h3.76a.64.64,0,0,1,.64.647v7.908a.64.64,0,0,1-.64.64Zm-3.113-1.28h2.466v-6.65h-2.466Z" transform="translate(1597.428 7338.433)"/><path class="a" d="M3630.682,91.2h-3.753a.64.64,0,0,1-.64-.64V75.547a.639.639,0,0,1,.64-.647h3.753a.64.64,0,0,1,.64.647v15.01A.64.64,0,0,1,3630.682,91.2Zm-3.113-1.28h2.473V76.187h-2.473Z" transform="translate(1594.653 7341.21)"/><path class="a" d="M3640.531,93.671h-3.781a.64.64,0,0,1-.64-.64V84.34a.64.64,0,0,1,.64-.64h3.752a.64.64,0,0,1,.647.64v8.691a.64.64,0,0,1-.618.64Zm-3.105-1.28h2.466v-7.4h-2.466Z" transform="translate(1591.892 7338.736)"/><path class="a" d="M3650.409,92.378h-3.752a.64.64,0,0,1-.647-.64V79.747a.647.647,0,0,1,.647-.647h3.752a.647.647,0,0,1,.64.647V91.738a.64.64,0,0,1-.64.64ZM3647.3,91.1h2.473V80.4H3647.3Z" transform="translate(1589.109 7340.029)"/></g></svg>