<svg xmlns="http://www.w3.org/2000/svg" width="18.597" height="18.76" viewBox="0 0 18.597 18.76"><defs><style>.a{fill:#2836f6;}</style></defs><g transform="translate(-5482.896 -7411.64)"><path class="a" d="M3887.839,84.685a.739.739,0,0,1-.739-.739v-3.68a.738.738,0,0,1,.739-.746h0a.739.739,0,0,1,.739.746v3.653a.738.738,0,0,1-.746.739Zm0,0" transform="translate(1597.318 7338.396)"/><path class="a" d="M3901.549,89.19h-11.738a2.652,2.652,0,0,1-2.651-2.644V85.164a.752.752,0,0,1,.746-.746h0a.739.739,0,0,1,.739.746v1.381a1.167,1.167,0,0,0,1.167,1.167h11.738a1.167,1.167,0,0,0,1.167-1.167V73.081a1.167,1.167,0,0,0-1.167-1.167h-11.737a1.167,1.167,0,0,0-1.167,1.167v.435a.746.746,0,0,1-1.484,0v-.435a2.651,2.651,0,0,1,2.651-2.651h11.738a2.651,2.651,0,0,1,2.645,2.651V86.545A2.651,2.651,0,0,1,3901.549,89.19Zm0,0" transform="translate(1597.299 7341.21)"/><path class="a" d="M3898.908,77.888h-6.345a.739.739,0,1,1,0-1.478h6.359a.739.739,0,1,1,0,1.478Zm0,4.212h-6.345a.739.739,0,1,1,0-1.478h6.359a.739.739,0,1,1,0,1.478Zm0,4.184h-6.345a.739.739,0,1,1,0-1.478h6.359a.739.739,0,1,1,0,1.478Zm-10.212-.628h-2.983a.746.746,0,1,1,0-1.484h2.983a.746.746,0,0,1,0,1.484Zm-.069-7.636h-2.969a.739.739,0,1,1,0-1.478h2.983a.739.739,0,0,1,0,1.478Zm0,0" transform="translate(1598 7339.359)"/></g></svg>