<svg xmlns="http://www.w3.org/2000/svg" width="66.051" height="30.875" viewBox="0 0 66.051 26.875"><defs><style>.a{fill:none;stroke:#2836f6;stroke-linecap:round;stroke-width:1.5px;}</style></defs><g transform="translate(-1117.228 -364.25)"><g transform="translate(763.144 -312.817)"><path class="a" d="M21.275,4.292h.083a2.713,2.713,0,0,1,2.953,2.6l0,15.495s.035,2.889-2.482,2.889c-4.232,0-17.3.1-17.3.1H2.985A2.985,2.985,0,0,1,0,22.39V2.985A2.985,2.985,0,0,1,2.985,0h15.3A2.985,2.985,0,0,1,21.27,2.985V20.151" transform="translate(374.699 677.817)"/><path class="a" d="M-11733.959,4853.2h13.826" transform="translate(12112.052 -4169.534)"/><path class="a" d="M-11733.959,4853.2h13.826" transform="translate(12112.052 -4163.838)"/><path class="a" d="M-11733.959,4853.2h6.438" transform="translate(12112.052 -4157.735)"/></g>

</g></svg>