<svg xmlns="http://www.w3.org/2000/svg" width="26.489" height="26.489" viewBox="0 0 26.489 26.489"><defs><style>.a{fill:#2836f6;}</style></defs><path class="a" d="M23.178,23.178,22,22.011a1.651,1.651,0,0,1,1.175-.488,1.656,1.656,0,0,0,1.656-1.656V3.311a1.656,1.656,0,0,0-1.656-1.656H6.622A1.656,1.656,0,0,0,4.967,3.311v.141a1.648,1.648,0,0,1-.48,1.167L3.311,3.452V3.311A3.311,3.311,0,0,1,6.622,0H23.178a3.311,3.311,0,0,1,3.311,3.311V19.867A3.311,3.311,0,0,1,23.178,23.178ZM1.656,6.622V23.178a1.656,1.656,0,0,0,1.656,1.656H19.867a1.656,1.656,0,0,0,1.656-1.656V6.622a1.656,1.656,0,0,0-1.656-1.656H3.311A1.656,1.656,0,0,0,1.656,6.622ZM19.867,3.311a3.311,3.311,0,0,1,3.311,3.311V23.178a3.311,3.311,0,0,1-3.311,3.311H3.311A3.311,3.311,0,0,1,0,23.178V6.622A3.311,3.311,0,0,1,3.311,3.311Z"/><path class="a" d="M66.483,256h9.933a.828.828,0,1,1,0,1.656H66.483a.828.828,0,1,1,0-1.656Zm14.9,1.656a.828.828,0,1,1,.828-.828A.828.828,0,0,1,81.383,257.656ZM64,259.311H83.867v1.656H64Z" transform="translate(-62.344 -249.378)"/></svg>