<svg xmlns="http://www.w3.org/2000/svg" width="66.051" height="33.449" viewBox="0 0 66.051 33.449"><defs><style>.a,.b,.d{fill:none;}.a,.b{stroke:#2836f6;stroke-width:1.5px;}.b{stroke-linecap:round;}.c{stroke:none;}</style></defs><g transform="translate(-1283.228 -360)"><g transform="translate(1299.236 360)"><g class="a" transform="translate(0 2.086)"><rect class="c" width="10.623" height="31.362" rx="5"/><rect class="d" x="0.75" y="0.75" width="9.123" height="29.862" rx="4.25"/></g><path class="b" d="M-11473.657,4850.163h4.315" transform="translate(11476.865 -4843.441)"/><path class="b" d="M-11473.657,4850.163h4.315" transform="translate(11476.865 -4839.395)"/><g class="b" transform="translate(3.541 24.849)"><ellipse class="c" cx="1.77" cy="1.77" rx="1.77" ry="1.77"/><ellipse class="d" cx="1.77" cy="1.77" rx="1.02" ry="1.02"/></g><g class="a" transform="translate(10.117 2.086)"><rect class="c" width="10.623" height="31.362" rx="5"/><rect class="d" x="0.75" y="0.75" width="9.123" height="29.862" rx="4.25"/></g><path class="b" d="M-11473.657,4850.163h4.315" transform="translate(11486.982 -4843.441)"/><path class="b" d="M-11473.657,4850.163h4.315" transform="translate(11486.982 -4839.395)"/><g class="b" transform="translate(13.658 24.849)"><ellipse class="c" cx="1.77" cy="1.77" rx="1.77" ry="1.77"/><ellipse class="d" cx="1.77" cy="1.77" rx="1.02" ry="1.02"/></g><g class="a" transform="translate(19.633 2.57) rotate(-14)"><rect class="c" width="10.623" height="31.362" rx="5"/><rect class="d" x="0.75" y="0.75" width="9.123" height="29.862" rx="4.25"/></g><path class="b" d="M0,0H4.314" transform="translate(23.867 6.291) rotate(-14)"/><path class="b" d="M0,0H4.314" transform="translate(24.846 10.218) rotate(-14)"/><g class="b" transform="translate(28.576 23.8) rotate(-14)"><ellipse class="c" cx="1.77" cy="1.77" rx="1.77" ry="1.77"/><ellipse class="d" cx="1.77" cy="1.77" rx="1.02" ry="1.02"/></g></g>

</g></svg>