<svg xmlns="http://www.w3.org/2000/svg" width="43.541" height="51.239" viewBox="0 0 43.541 51.239"><defs><style>.a{fill:#50d0f3;}.b{fill:#6b74f8;}.c{fill:#2836f6;}.d{fill:#02bbee;}.e{fill:#d0cfcf;}.f{fill:#040000;}</style></defs><g transform="translate(-2187.636 -1492.171)"><path class="a" d="M3687.476,110.67a.241.241,0,0,1,.008.046.4.4,0,0,1-.338.089q-3.349,0-6.7,0a.414.414,0,0,1-.339-.088.192.192,0,0,1,.006-.047Z" transform="translate(-1482.274 1381.502)"/><path class="b" d="M3981.8,110.712a.124.124,0,0,0,0-.052h7.362a.047.047,0,0,1,.014.04c-.09.109-.217.094-.335.094q-3.362,0-6.725,0A.4.4,0,0,1,3981.8,110.712Z" transform="translate(-1768.302 1381.511)"/><path class="c" d="M3823.288,111.461h7.118c.086,0,.172-.007.26-.011l2.5,2.482,6.167,6.147c.163.162.156.237,0,.4q-10,9.975-19.987,19.964c-.17.171-.245.141-.395-.01q-2.064-2.077-4.145-4.139c-.174-.172-.185-.255,0-.436q7.689-7.665,15.368-15.343c.235-.235.235-.235-.008-.479-.99-.989-1.984-1.973-2.966-2.972-.156-.161-.24-.179-.411-.007q-3.712,3.729-7.434,7.447c-.159.159-.233.164-.393,0-1.38-1.393-2.77-2.776-4.157-4.163-.067-.067-.128-.139-.192-.208-.012-.124.084-.183.156-.254q2.073-2.077,4.149-4.153a.423.423,0,0,1,.231-.156c.448-.44.9-.879,1.343-1.321Q3821.889,112.855,3823.288,111.461Z" transform="translate(-1609.791 1380.762)"/><path class="d" d="M3531.192,115.626l-2.2,2.218q-1.167,1.173-2.333,2.343l-2.043-2.017c-.364-.358-.727-.714-1.077-1.083-.13-.137-.2-.147-.344,0q-1.537,1.557-3.1,3.091c-.135.133-.116.2.007.326q1.463,1.447,2.914,2.907c.066.066.125.141.188.211.007.122-.089.182-.159.252q-2.065,2.069-4.134,4.135c-.065.065-.123.148-.23.153-.259-.252-.522-.5-.779-.756q-3.446-3.441-6.891-6.885c-.109-.108-.2-.177-.036-.341q4.323-4.3,8.635-8.618.029-.026.06-.048h7.376l3.919,3.9C3531.041,115.484,3531.117,115.555,3531.192,115.626Z" transform="translate(-1321.837 1380.705)"/><path class="c" d="M3661,349.25l2.992-3,1.532-1.538c.284.276.571.548.852.831l3.578,3.562c.116.116.127.178,0,.3q-2.142,2.124-4.27,4.262c-.088.088-.146.146-.266.025q-2.192-2.2-4.393-4.4A.216.216,0,0,1,3661,349.25Z" transform="translate(-1464.156 1159.612)"/><path class="e" d="M4319.806,802.1l-.021.005-.021,0a.2.2,0,0,1-.079-.156,8.081,8.081,0,0,1,0-1.043.2.2,0,0,1,.077-.156h.045Z" transform="translate(-2088.63 727.247)"/><path class="f" d="M4020.8,754.273c0-.759.007-1.52,0-2.279,0-.185.052-.226.23-.225q1.892.012,3.783,0c.174,0,.228.052.211.216-.026.263.113.617-.06.768-.149.13-.493.041-.751.041-.727,0-1.454.005-2.176,0-.156,0-.218.033-.2.2.022.248-.1.571.044.727s.473.043.72.046q.919.011,1.839,0c.161,0,.212.043.2.2a3.974,3.974,0,0,0,0,.6c.014.178-.035.232-.222.229-.786-.011-1.572,0-2.358-.009-.18,0-.248.041-.226.226.029.246-.1.576.052.718.137.122.459.039.7.041.734,0,1.469.01,2.2-.005.208,0,.251.062.235.247a2.887,2.887,0,0,0,0,.543c.023.212-.072.237-.252.234-.691-.009-1.382-.006-2.073,0-.561,0-1.122,0-1.683.02-.174,0-.219-.052-.217-.22C4020.8,755.812,4020.8,755.044,4020.8,754.273Z" transform="translate(-1805.268 773.685)"/><path class="f" d="M4227.539,753.831l0,1.35a.6.6,0,0,1-.2.351,3.152,3.152,0,0,1-4.413-.3,2.289,2.289,0,0,1,.356-3.274,3.187,3.187,0,0,1,3.72-.194c.421.271.421.271.152.677-.287.435-.287.435-.735.156a2.173,2.173,0,0,0-2.411.077,1.314,1.314,0,0,0,0,2.193,2.217,2.217,0,0,0,2.348.13c.228-.129.175-.312.166-.491-.006-.114-.119-.072-.188-.073-.38,0-.76-.008-1.14,0-.16,0-.238-.028-.224-.211a3.791,3.791,0,0,0,0-.623c-.012-.17.055-.2.208-.194.588.008,1.175,0,1.762,0A.538.538,0,0,1,4227.539,753.831Z" transform="translate(-1996.408 774.168)"/><path class="f" d="M3802.076,754.085c.311,0,.623,0,.935,0a.5.5,0,0,1,.546.523c.012.379,0,.76,0,1.142a.6.6,0,0,1-.214.452,3.159,3.159,0,0,1-4.33-.216,2.3,2.3,0,0,1,.255-3.341,3.172,3.172,0,0,1,3.738-.22c.429.276.429.276.152.694s-.279.424-.719.15a2.157,2.157,0,0,0-2.648.276,1.272,1.272,0,0,0-.045,1.74,2.162,2.162,0,0,0,2.679.338c.186-.129.108-.3.1-.444-.006-.165-.165-.078-.25-.08-.38-.011-.76-.01-1.142,0-.123,0-.167-.031-.161-.156.013-.275-.088-.626.047-.8s.5-.036.763-.052C3801.885,754.081,3801.98,754.085,3802.076,754.085Z" transform="translate(-1594.435 773.542)"/><path class="f" d="M4116.03,753.016c0,.935-.013,1.864.008,2.8.006.276-.081.342-.33.311a2.206,2.206,0,0,0-.467,0c-.18.017-.234-.043-.232-.228.009-.994,0-1.987,0-2.981,0-.371,0-.743,0-1.115a.521.521,0,0,1,.312-.544.534.534,0,0,1,.626.17c.965.963,1.936,1.921,2.908,2.885.058-.052.021-.134.021-.2,0-.935.007-1.866,0-2.8,0-.178.041-.247.227-.233a5.44,5.44,0,0,0,.623,0c.128,0,.183.024.183.169,0,1.454,0,2.9,0,4.355a.479.479,0,0,1-.327.482.532.532,0,0,1-.588-.156c-.906-.915-1.817-1.825-2.723-2.739a2.171,2.171,0,0,1-.171-.224Z" transform="translate(-1894.596 774.344)"/><path class="f" d="M3689.795,753.439c0,.948,0,1.895,0,2.842,0,.19-.029.282-.246.26a3.818,3.818,0,0,0-.6,0c-.13.006-.178-.027-.178-.169q.008-2.086,0-4.173a.5.5,0,0,1,.308-.519.547.547,0,0,1,.63.17c.967.961,1.941,1.916,2.918,2.88.052-.04.015-.125.015-.194,0-.935.007-1.866,0-2.8,0-.173.03-.249.222-.234.26.02.6-.088.75.042.167.149.052.5.052.766.005,1.2,0,2.4,0,3.6a.55.55,0,0,1-.323.59.557.557,0,0,1-.644-.2c-.892-.9-1.789-1.8-2.684-2.7a1.74,1.74,0,0,1-.156-.208Z" transform="translate(-1490.495 773.959)"/><path class="f" d="M3912.732,753.812c0-.76,0-1.52,0-2.28,0-.161.028-.234.208-.216.264.027.618-.109.769.052.131.141.036.492.038.75,0,.337.005.675,0,1.011,0,.13.033.182.173.182q1.3-.008,2.591,0c.142,0,.171-.052.169-.182-.006-.535,0-1.071,0-1.606,0-.142.01-.224.188-.208.266.021.616-.085.776.048s.048.5.048.764c0,1.3-.006,2.607.008,3.91,0,.249-.075.312-.3.289a2.871,2.871,0,0,0-.519,0c-.163.013-.2-.045-.2-.2.01-.536,0-1.071.007-1.607,0-.14-.03-.193-.183-.192q-1.282.011-2.564,0c-.15,0-.189.045-.187.19.008.535,0,1.071.006,1.606,0,.156-.038.217-.2.208a4.35,4.35,0,0,0-.623,0c-.172.013-.2-.059-.194-.208C3912.736,755.349,3912.732,754.58,3912.732,753.812Z" transform="translate(-1702.817 774.142)"/><path class="f" d="M3948.987,918.1c0,1.5,0,3,0,4.506,0,.186-.033.26-.235.243a4.43,4.43,0,0,0-.7,0c-.18.013-.208-.058-.208-.219.006-1.485,0-2.97,0-4.454,0-1.554,0-3.108,0-4.661,0-.174.031-.247.222-.233a4.62,4.62,0,0,0,.7,0c.192-.015.221.062.221.234C3948.985,915.047,3948.987,916.575,3948.987,918.1Z" transform="translate(-1736.115 620.555)"/><path class="f" d="M3486.056,754.7c.519-.67,1.023-1.315,1.514-1.973.115-.156.19-.178.333-.044a3.392,3.392,0,0,0,.471.363c.139.09.131.156.034.278-.566.719-1.117,1.45-1.683,2.169a.693.693,0,0,0-.159.472c.009.475,0,.951.007,1.426,0,.16-.041.212-.2.2a4.78,4.78,0,0,0-.623,0c-.156.01-.208-.028-.2-.195.012-.493,0-.986.007-1.478a.552.552,0,0,0-.126-.376c-.571-.727-1.125-1.465-1.7-2.189-.125-.156-.118-.239.047-.336a2.678,2.678,0,0,0,.268-.2c.353-.271.353-.271.633.092Z" transform="translate(-1296.004 772.906)"/><path class="f" d="M3994.59,1075.644c1.054,0,2.108,0,3.162,0,.182,0,.244.048.23.231a3.234,3.234,0,0,0,0,.6c.026.242-.039.317-.3.315-1.979-.013-3.957-.007-5.936-.007-.577,0-.577,0-.577-.571s0-.559.571-.559Z" transform="translate(-1777.186 466.628)"/><path class="f" d="M3916.265,946.848c-.043.94-.092,1.879-.123,2.819-.006.183-.052.237-.232.219a6.78,6.78,0,0,0-.725-.03c-.164,0-.191-.066-.184-.218q.134-2.818.252-5.638c.006-.156.068-.184.2-.179.25.008.5.014.75,0,.176-.011.2.063.189.21C3916.35,944.971,3916.308,945.908,3916.265,946.848Z" transform="translate(-1704.97 591.605)"/><path class="f" d="M3975.261,946.763c.04.923.077,1.845.124,2.767.008.156-.02.235-.2.232a7.329,7.329,0,0,0-.75.029c-.156.013-.184-.052-.189-.19-.049-1.216-.1-2.431-.158-3.646-.03-.675-.055-1.345-.1-2.017-.011-.174.036-.226.208-.216a5.458,5.458,0,0,0,.7,0c.178-.012.23.041.236.224C3975.168,944.884,3975.218,945.823,3975.261,946.763Z" transform="translate(-1760.899 591.7)"/><path class="f" d="M4003.68,914.493c-.935,0-1.869,0-2.8,0-.172,0-.22-.047-.211-.214.014-.25.009-.5,0-.752,0-.123.031-.161.156-.161q2.85.006,5.7,0c.126,0,.176.037.156.161a.227.227,0,0,0,0,.026c-.005.3.1.7-.045.878s-.565.052-.863.056C4005.079,914.5,4004.379,914.493,4003.68,914.493Z" transform="translate(-1786.191 620.474)"/><path class="f" d="M3691.179,915.873c0-.163-.045-.2-.2-.2-.506.01-1.011,0-1.558,0,.069-.085.108-.138.152-.186q.569-.637,1.142-1.274c.367-.411.312-.759-.163-1.026a.463.463,0,0,0-.2-.018h-8.471c-.122-.01-.169.042-.166.166.007.26.011.519,0,.779-.008.167.06.2.212.2,1.621-.039,3.241.088,4.862.052.6-.012,1.208,0,1.813,0,.091,0,.189-.031.267.035a.1.1,0,0,1-.029.1c-.3.324-.588.655-.885.98a.416.416,0,0,1-.329.122c-.8,0-1.605,0-2.409,0a.362.362,0,0,1-.377-.25,7.738,7.738,0,0,0-.372-.769c-.052-.1-.1-.208-.237-.208-.255.125-.505.26-.766.371-.16.068-.208.138-.114.3.109.191.192.4.3.627h-1.2c-.553,0-.72.169-.72.731,0,1.053.017,2.107-.006,3.16-.022,1.01.033,2.02,0,3.03,0,.117.038.147.148.144.26-.007.52-.016.779,0,.187.013.208-.067.208-.222-.008-.519,0-1.038-.006-1.557,0-.148.02-.208.192-.208q1.335.015,2.669,0c.158,0,.181.058.177.194-.009.293,0,.587,0,.883s.008.585.013.877a7.584,7.584,0,0,0,.922.031c.156.012.208-.033.2-.2-.012-.535,0-1.071,0-1.606,0-.1-.01-.179.14-.178.916.007,1.831,0,2.747,0,.067,0,.125-.011.142.095a.634.634,0,0,1-.615.756c-.233.007-.467.007-.7,0-.125,0-.192.023-.187.169.009.267.009.536,0,.8,0,.13.046.162.166.156.26-.007.519,0,.779,0a1.7,1.7,0,0,0,1.679-1.661C3691.184,919.345,3691.172,917.609,3691.179,915.873Zm-5.336,3.719c-.109.129-.388.034-.592.038-.293.007-.587,0-.883,0-.448,0-.9,0-1.346,0-.13,0-.173-.029-.177-.169-.02-.679-.025-.679.653-.679.727,0,1.449.005,2.174,0,.168,0,.228.041.212.212C3685.867,919.2,3685.947,919.469,3685.843,919.592Zm.008-1.984c-.122.144-.4.039-.616.046-.284.01-.571,0-.855,0-.44,0-.882-.01-1.322,0-.178.006-.21-.056-.212-.218,0-.641-.007-.641.644-.641.727,0,1.454,0,2.177,0,.158,0,.239.024.219.208-.02.208.068.482-.036.6Zm3.547,2.025c-.724,0-1.447-.005-2.171,0-.165,0-.23-.035-.213-.208.02-.2-.06-.472.043-.6s.386-.035.59-.04c.293-.007.585,0,.878,0,.448,0,.9,0,1.344,0,.133,0,.172.033.176.171.019.673.023.673-.647.673Zm0-1.973c-.727,0-1.45-.006-2.175,0-.17,0-.226-.045-.211-.213.018-.205-.061-.472.042-.6s.386-.036.59-.042c.292-.008.585,0,.877,0,.448,0,.9,0,1.346,0,.135,0,.171.039.176.174.025.677.029.677-.643.677Z" transform="translate(-1483.79 620.662)"/><path class="f" d="M4013.779,951.247c0-.46-.206-.666-.66-.667h-4.094c-.446,0-.648.2-.648.648q0,2.2,0,4.4a.571.571,0,0,0,.656.648h4.067a.593.593,0,0,0,.679-.681v-4.353Zm-4.1.46c.467.006.934,0,1.4,0s.935.005,1.4,0c.136,0,.179.035.174.172-.01.276-.009.553,0,.831,0,.125-.035.16-.16.159q-1.412-.007-2.825,0c-.118,0-.172-.023-.167-.156.009-.276.009-.553,0-.831C4009.492,951.739,4009.546,951.7,4009.678,951.707Zm2.806,3.443c-.467-.005-.93,0-1.4,0s-.914-.01-1.37,0c-.189.006-.232-.058-.223-.234.015-.26.008-.519,0-.775,0-.11.034-.152.147-.152q1.433,0,2.868,0c.126,0,.137.056.135.156,0,.284-.009.571,0,.852C4012.655,955.136,4012.6,955.151,4012.484,955.15Z" transform="translate(-1793.498 585.196)"/><path class="f" d="M3579.031,751.9a2.516,2.516,0,1,0,2.511,2.523,2.517,2.517,0,0,0-2.511-2.523Zm-.008,4.019a1.5,1.5,0,1,1,1.509-1.49A1.5,1.5,0,0,1,3579.024,755.919Z" transform="translate(-1384.053 773.561)"/></g></svg>