<svg xmlns="http://www.w3.org/2000/svg" width="38.435" height="51.399" viewBox="0 0 38.435 51.399"><defs><style>.a{fill:#2836f6;}.b{fill:#02bbee;}.c{fill:#040000;}</style></defs><g transform="translate(-2133 -1492.172)"><path class="a" d="M2622.336,122.4c-.095.455-.1.922-.2,1.379a11.1,11.1,0,0,1-5.32,7.627c-4.621,2.8-9.261,5.58-13.891,8.372-.161.1-.225.092-.323-.084a5.535,5.535,0,0,1,1.9-7.358c2.429-1.506,4.893-2.959,7.341-4.433.732-.441,1.474-.867,2.2-1.325a5.564,5.564,0,0,0-1.834-10.253,5.663,5.663,0,0,0-4,.779c-3.867,2.334-7.746,4.647-11.6,7a2.814,2.814,0,0,1-4.24-1.574,2.739,2.739,0,0,1,1.142-3.063c1.212-.764,2.451-1.486,3.68-2.226l8.168-4.918a11.087,11.087,0,0,1,4.9-1.609.2.2,0,0,0,.145-.043h1.557a11.6,11.6,0,0,1,1.661.192,11.256,11.256,0,0,1,4.889,2.447,11.115,11.115,0,0,1,3.631,6.053,6.7,6.7,0,0,1,.171,1.386c0,.066-.023.139.026.2Z" transform="translate(-450.901 1381.502)"/><path class="b" d="M2443.143,110.67c.533.1,1.075.134,1.605.254a11.473,11.473,0,0,1,2.985,1.117c-.06.109-.173.14-.263.194q-3.917,2.361-7.839,4.718a5.552,5.552,0,0,0,1.391,10.219,5.625,5.625,0,0,0,4.361-.691l9.126-5.494c.844-.508,1.685-1.02,2.531-1.524a2.785,2.785,0,1,1,2.879,4.766q-2.4,1.447-4.8,2.888c-2.377,1.429-4.73,2.9-7.135,4.279a11.163,11.163,0,0,1-16.445-6.969,9.907,9.907,0,0,1-.3-2.022c-.038-.376-.007-.753-.017-1.13a9.875,9.875,0,0,1,1.424-5.057,11.009,11.009,0,0,1,4.683-4.427,10.659,10.659,0,0,1,3.3-1.053c.311-.046.634-.017.948-.068Z" transform="translate(-298.23 1381.502)"/><path class="c" d="M2872.971,924.181c.474.048.948.016,1.422.02.708.006,1.417.008,2.125,0,.185,0,.24.052.229.233a5.021,5.021,0,0,0,0,.675c.011.172-.047.214-.215.213-1.149-.007-2.3,0-3.447,0-.052,0-.1.006-.156.009a1.727,1.727,0,0,1-1.621-1.835q-.007-3.642,0-7.284c0-.456,0-.461.457-.454.213,0,.49-.093.623.039s.04.409.04.623q0,3.5,0,7C2872.431,923.9,2872.59,924.122,2872.971,924.181Z" transform="translate(-715.458 618.243)"/><path class="c" d="M2786.784,756.307c.3,0,.606-.006.908,0a.509.509,0,0,1,.559.567c0,.367,0,.727,0,1.09a.6.6,0,0,1-.214.478,3.179,3.179,0,0,1-4.374-.241,2.313,2.313,0,0,1,.346-3.4,3.213,3.213,0,0,1,3.71-.151c.413.265.415.267.147.663-.1.149-.165.389-.319.415-.125.022-.286-.159-.431-.249a2.187,2.187,0,0,0-2.417.077,1.324,1.324,0,0,0,0,2.216,2.223,2.223,0,0,0,2.353.116.479.479,0,0,0,.162-.516c-.042-.088-.12-.049-.181-.052-.4,0-.8-.009-1.194,0-.149,0-.194-.044-.186-.189.015-.266-.086-.615.046-.779s.5-.04.768-.056C2786.576,756.3,2786.68,756.307,2786.784,756.307Z" transform="translate(-631.813 771.44)"/><path class="c" d="M2673.782,755.925c0,.959-.005,1.921,0,2.879,0,.186-.031.264-.236.245a4.332,4.332,0,0,0-.623,0c-.13.006-.178-.027-.178-.17.006-1.4,0-2.8,0-4.205a.519.519,0,0,1,.317-.519.512.512,0,0,1,.608.152l2.837,2.851a.562.562,0,0,1,.069.112c.1-.092.066-.174.066-.244,0-.935.008-1.869,0-2.8,0-.2.052-.26.245-.243a3.069,3.069,0,0,0,.571,0c.193-.019.22.061.219.232q-.01,2.115,0,4.229a.533.533,0,0,1-.323.564.545.545,0,0,1-.626-.18q-1.387-1.4-2.78-2.8a.947.947,0,0,1-.1-.147Z" transform="translate(-527.212 771.593)"/><path class="c" d="M3045.688,757.255c0-.994.01-1.987-.007-2.98,0-.24.07-.294.287-.273a3.88,3.88,0,0,0,.571,0c.141-.007.174.052.174.181,0,1.445,0,2.889,0,4.333a.5.5,0,0,1-.326.511.511.511,0,0,1-.588-.147q-1.381-1.389-2.765-2.775c-.059-.06-.122-.116-.189-.179-.063.091-.033.178-.033.26,0,.883-.009,1.765,0,2.648,0,.2-.056.251-.244.236-.248-.02-.585.082-.727-.044-.161-.145-.048-.486-.049-.742-.005-1.176,0-2.352,0-3.53a.527.527,0,0,1,.951-.394q1.35,1.363,2.708,2.722a2.1,2.1,0,0,1,.172.223Z" transform="translate(-877.059 771.572)"/><path class="c" d="M2903.791,759.143c-.036.038-.064.071-.1.1-.208.195-.4.519-.629.544-.208.023-.384-.344-.575-.539-.345-.352-.687-.706-1.022-1.067-.1-.1-.146-.1-.235.006-.446.505-.9,1-1.347,1.505-.1.117-.169.156-.292.023-.186-.2-.552-.346-.557-.571,0-.2.318-.4.5-.6.323-.36.641-.727.974-1.076.118-.123.107-.189-.006-.305-.5-.506-.979-1.025-1.474-1.531-.1-.1-.109-.166,0-.263a5.156,5.156,0,0,0,.467-.447c.109-.118.171-.113.28.005.459.494.935.973,1.391,1.468.127.137.192.13.312-.009.424-.49.866-.964,1.293-1.454.1-.113.164-.147.279-.02.184.2.55.344.555.571,0,.2-.311.4-.488.6-.311.348-.617.7-.938,1.038-.119.125-.133.193,0,.324.5.5.984,1.02,1.473,1.532C2903.7,759.035,2903.744,759.088,2903.791,759.143Z" transform="translate(-741.666 770.781)"/><path class="c" d="M2983.206,916.21c.571,0,.568,0,.6.571q.246,4.073.5,8.146c.013.2-.023.28-.237.274a4.872,4.872,0,0,0-.671.039c-.155.018-.219-.005-.229-.191q-.242-4.177-.5-8.354C2982.642,916.209,2982.638,916.21,2983.206,916.21Z" transform="translate(-821.033 617.781)"/><path class="c" d="M2823.692,916.188c.577,0,.571,0,.535.588q-.181,3.145-.351,6.291c-.036.656-.078,1.312-.1,1.968-.007.167-.065.2-.219.185a5.409,5.409,0,0,0-.7-.038c-.182,0-.232-.058-.221-.239.065-1.052.12-2.106.178-3.158q.145-2.615.29-5.23c.024-.447-.029-.356.385-.366C2823.554,916.187,2823.623,916.188,2823.692,916.188Z" transform="translate(-669.312 617.803)"/><path class="c" d="M2468.9,756.983c.516-.669,1.028-1.32,1.524-1.984.118-.156.2-.173.338-.04a3.483,3.483,0,0,0,.471.364c.138.09.129.156.032.278-.576.734-1.142,1.476-1.713,2.21a.634.634,0,0,0-.143.427c.008.492,0,.986.006,1.478,0,.129-.026.186-.169.178-.274-.016-.627.086-.8-.049s-.076-.505-.043-.763a2.253,2.253,0,0,0-.654-1.94c-.442-.471-.795-1.022-1.2-1.527-.118-.146-.1-.216.049-.312.224-.139.422-.464.64-.422.193.037.332.369.49.571C2468.112,755.96,2468.5,756.465,2468.9,756.983Z" transform="translate(-331.636 770.746)"/><path class="c" d="M2925.885,919.626c.052,1.08.1,2.16.16,3.238.012.208-.044.27-.248.264-.284-.009-.656.121-.831-.013s-.075-.533-.089-.815c-.1-1.977-.181-3.956-.281-5.933-.011-.225.052-.28.264-.263a5.727,5.727,0,0,0,.7,0c.137-.006.173.044.179.177.045,1.115.1,2.229.147,3.343Z" transform="translate(-765.983 617.885)"/><path class="c" d="M3007.232,756.214c0-.751,0-1.5,0-2.253,0-.17.024-.252.219-.236.256.021.594-.082.75.047s.049.485.052.741c.005,1.338,0,2.676.008,4.014,0,.2-.052.26-.247.24a2.484,2.484,0,0,0-.519,0c-.226.025-.266-.07-.263-.275C3007.239,757.734,3007.232,756.974,3007.232,756.214Z" transform="translate(-844.324 771.849)"/><path class="c" d="M2597.372,919.088c0-.224-.071-.288-.3-.279-.479.02-.959.006-1.493.006.46-.512.883-.986,1.31-1.457a.585.585,0,0,0-.46-1.04q-3.088.008-6.175,0c-.717,0-1.435.005-2.153,0-.171,0-.229.043-.216.215a3.686,3.686,0,0,1,0,.623c-.023.236.052.3.295.3,2.266-.01,4.531-.006,6.8,0,.086,0,.182-.029.27.041-.368.41-.727.806-1.083,1.207a.323.323,0,0,1-.268.119c-.882,0-1.765-.007-2.648,0a.254.254,0,0,1-.266-.183c-.148-.33-.312-.652-.461-.983-.057-.125-.111-.141-.229-.078-.237.125-.476.244-.723.346-.136.057-.13.118-.073.228.1.205.2.415.32.666h-1.258c-.456,0-.669.208-.669.662,0,2.066,0,4.131,0,6.2,0,.151.025.218.2.208a5.847,5.847,0,0,1,.751,0c.174.012.194-.06.192-.208-.008-.51,0-1.021-.007-1.531,0-.18.022-.253.232-.25.865.014,1.73.012,2.6,0,.19,0,.226.062.222.235-.01.5.009,1-.01,1.506-.008.215.067.259.26.246a4.9,4.9,0,0,1,.675,0c.164.011.2-.046.2-.2-.01-.527,0-1.055,0-1.582,0-.1-.018-.2.148-.2q1.376.01,2.752,0c.114,0,.143.037.146.148a.633.633,0,0,1-.675.707c-.225,0-.45,0-.675,0-.1,0-.162.012-.159.137.008.286,0,.571,0,.856,0,.073,0,.139.1.134a7.182,7.182,0,0,0,1.139-.03,1.729,1.729,0,0,0,1.388-1.76c.02-.727.01-1.454.011-2.177C2597.368,920.974,2597.363,920.03,2597.372,919.088Zm-5.918,3.679h-.906c-.439,0-.88,0-1.32,0-.144,0-.208-.015-.211-.19,0-.655-.012-.655.65-.655.727,0,1.449.006,2.174,0,.185,0,.228.052.226.232,0,.618,0,.618-.611.618Zm-.006-1.976h-.906c-.448,0-.9,0-1.346,0-.131,0-.174-.03-.178-.17-.019-.679-.023-.679.654-.679.727,0,1.451,0,2.175,0,.167,0,.219.04.219.214,0,.635.01.635-.616.635Zm4.171,1.976h-.906c-.448,0-.9-.006-1.345,0-.149,0-.186-.044-.188-.19-.011-.657-.016-.657.65-.657.727,0,1.45.007,2.174,0,.186,0,.226.052.225.231,0,.616,0,.616-.607.616Zm-.03-1.976h-.882c-.432,0-.864-.007-1.295,0-.171,0-.238-.029-.236-.221.006-.629,0-.629.631-.629.733,0,1.467,0,2.2,0,.163,0,.221.033.22.211,0,.638.01.638-.635.638Z" transform="translate(-446.751 617.679)"/><path class="c" d="M2562.664,754.17a2.532,2.532,0,1,0,1.8.737A2.529,2.529,0,0,0,2562.664,754.17Zm0,4.035a1.508,1.508,0,1,1,1.51-1.5A1.5,1.5,0,0,1,2562.667,758.2Z" transform="translate(-420.457 771.409)"/></g></svg>