<svg xmlns="http://www.w3.org/2000/svg" viewBox="0 0 1370.75 1368.73"><defs><style>.cls-1{fill:#2836F6;}</style></defs><g id="图层_2" data-name="图层 2"><g id="图层_1-2" data-name="图层 1"><path class="cls-1" d="M1370.75,684.64c-1.12,97.73-16.2,189.31-43.57,269.73a515.2,515.2,0,0,1-23.45,60.31,504.57,504.57,0,0,1-23.45,45.79,356,356,0,0,1-23.45,37.42c-7.26,11.73-15.66,22.34-24,32.38a266.77,266.77,0,0,1-23.45,26.81A302.76,302.76,0,0,1,1185.9,1180a269.18,269.18,0,0,1-23.45,19.55c-7.82,5.59-15.62,11.17-23.45,16.2s-15.08,10-23.47,14.52c-7.8,4.47-15.63,8.37-24,12.28-7.83,3.35-15.65,6.71-23.45,9.5a195.29,195.29,0,0,1-23.45,7.81,185.77,185.77,0,0,1-23.45,6.71l-23.48,5-23.45,3.35c-7.82.56-15.62,1.68-23.45,2.24-7.82,0-16.19.55-24,.55H924l-20.67,82.1-2.24,8.93L879.88,1347l-23.45-24.57-23.45-24-23.45-24-24-25.12-21.22-21.79-2.23-2.23-11.73-12.29-11.75-12.28-8.92-8.93L718.48,1180l-3.35-3.34-7.8-8.38-11.18-11.17-4.47-5-6.71-6.7-11.72-12.28-5-5-6.13-6.7-11.18-11.17-6.14-6.7-5-5-11.18-11.73V1085l11.18-3.35,5-1.67,6.14-2.24,11.18-3.35,6.13-2.23,5-1.68,11.72-3.35,6.71-2.23,4.47-1.68,11.18-3.35,7.8-2.79,3.35-1.12,11.18-3.35,8.92-3.35,11.75-3.35,11.73-3.91,23.45-7.82,24-7.82h.55l22.9-6.7,23.45-7.26,23.45-7.25,23.45-6.71,23.45-7.25,24-7.26,23.45-6.7,17.86-5.59-17.86,77.06-4.47,19h4.47c7.83,0,15.63,0,23.45-.56a156,156,0,0,0,23.48-1.67,151.88,151.88,0,0,0,23.45-2.24c8.37-1.11,16.2-2.23,23.45-3.91a176.24,176.24,0,0,0,23.45-5c8.37-1.68,16.2-4.47,24-7.26a198.21,198.21,0,0,0,23.47-8.38,210.12,210.12,0,0,0,23.45-10c7.83-3.35,15.63-7.82,23.45-11.73,7.83-5,15.63-10,23.45-15.63a185.82,185.82,0,0,0,23.45-17.87,224.78,224.78,0,0,0,24-22.34,6.5,6.5,0,0,0,2.78-2.79,99.35,99.35,0,0,0,10.63-11.17,69.37,69.37,0,0,0,10-12.29A138.19,138.19,0,0,0,1293.69,917a71.1,71.1,0,0,0,10-15.08,435.25,435.25,0,0,0,23.45-42.44C1350.08,810.29,1365.16,752.21,1370.75,684.64Z"/><path class="cls-1" d="M673.25,223.93l-5,2.8L663.76,229l-12.27,6.7L644.78,239l-5.59,3.35-12.3,6.7-6.13,3.35-6.14,2.79-17.31,9.5-23.45,12.84-1.12.56-22.33,11.73L527,302.67,504.05,315l-.57.56-24,12.84L456,340.65l-23.45,12.84-23.48,12.84-23.45,12.29-23.45,12.84-23.45,12.85V331.15L339.88,306h-1.12c-8.37,1.68-16.2,2.79-24,5-7.8,1.11-15.63,3.35-23.45,5.58-7.83,1.68-15.63,4.47-23.45,7.26a195.42,195.42,0,0,0-23.45,8.38c-7.83,2.79-15.66,6.7-23.45,10.61a155.3,155.3,0,0,0-23.45,12.29,151.21,151.21,0,0,0-24,14.52q-11.73,7.53-23.45,16.75c-7.82,6.7-15.65,13.4-23.47,20.66a90.29,90.29,0,0,0-12.28,12.84,107.84,107.84,0,0,0-11.17,11.73,235.72,235.72,0,0,0-18.44,22.9c-1.66,2.79-3.9,5-5,7.81C27.72,537.22.89,637.73,11.52,762.26c-27.92-182-5-349.58,68.12-473A252.24,252.24,0,0,1,103.09,253a224.36,224.36,0,0,1,23.45-29c6.7-8.93,15.1-17.31,23.47-25.13a167.86,167.86,0,0,1,23.45-21.22c7.83-6.7,15.63-12.84,24-19,7.25-5,15.62-10.05,23.45-14.52a160.75,160.75,0,0,1,23.45-12.84c7.79-5,15.62-8.38,23.45-11.73A204.9,204.9,0,0,1,291.29,110a199.21,199.21,0,0,1,23.45-8.38c7.82-2.23,15.65-4.46,24-6.14a152,152,0,0,1,15.08-3.91L358.31,0l3.9,2.79,23.45,16.75,46.93,33.51L456,69.8l23.45,17.32,24,16.75L518,114.48l9,6.14,23.45,16.75L572.74,153l1.12,1.12,23.45,16.19,17.31,12.29,6.14,4.47,6.13,3.9,12.3,8.94,5.59,3.91,6.71,5,12.27,8.37,4.47,3.35Z"/><path class="cls-1" d="M762.06,579.1l-6.71,5H862c4.44,0,8.37,1.12,12.27,2.24,1.69.55,3.35,1.11,5.59,1.67a42.36,42.36,0,0,1,6.71,3.91,46,46,0,0,1,12.27,11.17,27.89,27.89,0,0,1,4.47,6.7,48.36,48.36,0,0,1,0,49.15,27.89,27.89,0,0,1-4.47,6.7,46.37,46.37,0,0,1-12.27,11.17,42.36,42.36,0,0,1-6.71,3.91c-2.24.55-3.9,1.11-5.59,1.67-3.9,1.12-7.83,2.23-12.27,2.23H736.92v68.13H862c4.44,0,8.37,1.12,12.27,2.23,1.69.56,3.35,1.12,5.59,1.68a41.61,41.61,0,0,1,6.71,3.91,46,46,0,0,1,12.27,11.17,27.69,27.69,0,0,1,4.47,6.7,48.34,48.34,0,0,1,0,49.14,27.75,27.75,0,0,1-4.47,6.71,46.16,46.16,0,0,1-12.27,11.16,40.88,40.88,0,0,1-6.71,3.91c-2.24.56-3.9,1.12-5.59,1.68-3.9,1.11-7.83,2.23-12.27,2.23H736.92v86.56a49.1,49.1,0,0,1-3.36,18.43,65.6,65.6,0,0,1-15.08,19.54,7.4,7.4,0,0,1-3.35,2.8,23.63,23.63,0,0,1-7.8,5A36.86,36.86,0,0,1,696.15,989a12.2,12.2,0,0,1-4.47.56,15.35,15.35,0,0,1-5,.56H685a29.28,29.28,0,0,1-11.72-2.23,16.36,16.36,0,0,1-5-1.12c-2.24-1.12-3.9-2.24-6.13-3.35a34.36,34.36,0,0,1-11.18-8.94c-2.79-2.23-4.48-5-6.14-7.82-2.24-2.79-3.35-5.58-5-8.37v-.56c0-.56-.57-1.68-.57-2.23a48.92,48.92,0,0,1-2.78-15.64V853.29H513.54c-2.78,0-5.59,0-8.37-1.12-.54.56-1.12,0-1.69,0a60.67,60.67,0,0,1-9.49-2.79c-4.47-2.23-8.37-4.47-11.72-7.82a5.39,5.39,0,0,1-2.78-2.23,36,36,0,0,1-8.38-10.05,48,48,0,0,1,0-52.5,36.1,36.1,0,0,1,8.38-10,5.49,5.49,0,0,1,2.78-2.23,5.68,5.68,0,0,1,2.8-2.24,49.16,49.16,0,0,1,8.92-5.58,61.76,61.76,0,0,1,9.49-2.79c.57,0,1.15-.56,1.69,0,2.78-1.12,5.59-1.12,8.37-1.12H636.41V689.11H513.54c-2.78,0-5.59,0-8.37-1.12-.54.56-1.12,0-1.69,0A60.67,60.67,0,0,1,494,685.2c-4.47-2.23-8.37-4.46-11.72-7.82a5.39,5.39,0,0,1-2.78-2.23,36,36,0,0,1-8.38-10,48,48,0,0,1,0-52.5,36,36,0,0,1,8.38-10.05,5.44,5.44,0,0,1,2.78-2.23c3.35-3.35,7.25-5.59,11.72-7.82a61.76,61.76,0,0,1,9.49-2.79c.57,0,1.15-.56,1.69,0,2.78-1.12,5.59-1.12,8.37-1.12h105l-1.12-1.12-2.78-1.67-8.37-6.7-8.94-7.26-2.24-1.68-11.15-8.37L573.86,554l-1.67-1.68L561,543.92l-10.6-8.38-.57-.56-11.16-8.37-11.18-8.94-.54-.56-10.61-7.82-11.18-8.93-1.69-1.12L494,491.42l-11.72-8.93-2.78-2.24-7.26-5.58c-.57-.56-1.12-1.12-1.12-1.68a40.2,40.2,0,0,1-11.18-23.45V431.11a37.27,37.27,0,0,1,3.36-11.17c2.23-5,5-10.05,8.94-14a84.82,84.82,0,0,1,7.26-6.14,60,60,0,0,1,24-7.26A49,49,0,0,1,527,397.05c5,2.23,10,5,14,8.93l9.49,7.26,8.37,6.7,2.23,1.68,11.18,8.93.55.56,1.12.56,10.06,7.82,11.15,8.93,2.24,1.68,8.94,7.26,8.37,6.7,2.78,2.23,3.36,2.24,6.13,5,1.69,1.12,10.61,8.38.57.56,5,3.9,6.14,5,.57.56,10.61,7.82,1.66,1.67,4.47,3.35,5,3.91,2.81,2.24,8.91,7.26,1.69,1.11,2.24-1.67,2.78-2.24,4.47-3.9,5-3.91,6.16-5,6.14-5,1.66-1.11,3.35-2.8,7.28-6.14,3.9-3.35,8.38-6.7.54-.56,11.75-9.49,11.73-9.5,1.12-.56,12.27-10.05,10.06-8.37,2.23-1.68L800,428.32l9.52-7.82,2.78-2.23,12.27-10,8.4-6.7a30.7,30.7,0,0,1,4.47-3.91,42.62,42.62,0,0,1,12.27-6.7l6.71-1.68a18.88,18.88,0,0,1,5.59-.56,45,45,0,0,1,12.27,0,24.47,24.47,0,0,1,5.59,1.12,32,32,0,0,1,6.71,2.23,35.3,35.3,0,0,1,12.27,7.82c.57.56,1.69,1.12,2.23,1.68.58,1.11,1.7,1.67,2.24,2.79a39.65,39.65,0,0,1,8.37,15.07,49.09,49.09,0,0,1,0,33.51,42.07,42.07,0,0,1-8.37,14.52,9.34,9.34,0,0,1-2.24,2.79l-2.23,1.68-12.27,9.49L879.88,487l-5.59,4.46L862,500.92l-5.59,4.47-6.71,5-12.27,9.49L833,523.26l-8.4,6.7-12.27,9.49-2.78,2.23L800,548.94l-12.27,10-2.23,1.68-10.06,7.82L763.18,578Z"/><path class="cls-1" d="M750.33,1332.43a86.47,86.47,0,0,1-11.75,2.23,48.48,48.48,0,0,1-8.92,1.12,75.22,75.22,0,0,1-11.18,1.12h-3.35a34.77,34.77,0,0,1-7.8.55H696.15a12.57,12.57,0,0,1-4.47-.55H685a83.27,83.27,0,0,1-11.72-1.12,15.44,15.44,0,0,1-5-.56,22.72,22.72,0,0,1-6.13-.56c-3.9-.56-7.29-1.11-11.18-1.67a24.08,24.08,0,0,1-6.14-1.11,16.11,16.11,0,0,1-5-1.12,78.47,78.47,0,0,1-11.18-2.24h-1.11c-1.67-.56-2.79-.56-4.48-1.12H613.5c-2.23-.56-5-.56-7.25-1.67a36.2,36.2,0,0,1-11.18-2.24,35.83,35.83,0,0,1-11.15-2.23c-3.93,0-7.83-1.12-11.73-2.23-3.92-.56-7.82-1.67-11.18-2.23-3.92-1.12-7.25-2.24-11.17-3.36a42.37,42.37,0,0,1-11.16-3.35,42.28,42.28,0,0,1-11.18-3.35c-3.9-.56-7.82-2.23-11.15-3.35a85.43,85.43,0,0,1-11.18-3.91A94.62,94.62,0,0,1,494,1295a103.57,103.57,0,0,1-11.72-4.47,67,67,0,0,1-11.16-4.47,49.64,49.64,0,0,1-11.18-5,70,70,0,0,1-11.15-5.59,40.28,40.28,0,0,1-11.18-5,106.79,106.79,0,0,1-11.18-5.58c-3.9-1.67-7.25-3.91-11.15-6.14s-7.83-4.48-11.18-6.7c-3.9-1.68-7.83-4.47-11.15-6.71-3.93-2.23-7.83-4.47-11.75-6.7-3.9-2.79-7.26-5.58-11.16-8.37a80.55,80.55,0,0,1-11.18-7.82c-3.9-2.79-7.79-5.59-11.18-8.38-3.89-2.79-7.25-5.58-11.15-8.37-3.9-3.36-7.82-6.15-11.18-9.5a62.79,62.79,0,0,1-11.15-10.05c-3.93-2.79-7.25-6.15-11.18-9.49-3.9-3.92-8.37-7.82-11.72-11.73a72,72,0,0,1-11.18-11.73A107.78,107.78,0,0,1,269,1142c-.57-.55-1.11-1.11-1.66-1.67a90.23,90.23,0,0,1-9.52-11.17c-3.9-4.47-7.82-8.93-11.15-13.41-3.93-4.46-7.82-8.93-11.18-13.4-3.9-5-7.82-10-11.18-15.07a145,145,0,0,1-11.15-14.52c-3.9-5.59-7.83-11.17-11.18-16.76a167.78,167.78,0,0,1-11.73-17.87c-3.89-6.14-7.82-12.84-11.15-19A182.94,182.94,0,0,1,167.87,999a168,168,0,0,1-11.18-22.33,222.47,222.47,0,0,1-11.15-23.46c-3.9-9.49-7.83-19-11.18-28.48A580.22,580.22,0,0,1,103.09,812l-3.9-49.71-1.12-14c-3.36-41.88-1.69-81.53,5-117.27a326.24,326.24,0,0,1,23.45-75.94,146.13,146.13,0,0,1,7.82-16.2,223.74,223.74,0,0,1,11.18-19.54,45.13,45.13,0,0,1,4.47-6.7c1.67-3.36,4.45-6.71,6.68-9.5a139.47,139.47,0,0,1,11.18-14c1.69-2.23,3.9-4.47,5.59-6.7s3.9-3.91,5.59-5.59a105.93,105.93,0,0,1,11.15-11.17,38.58,38.58,0,0,1,7.29-6.14,14.93,14.93,0,0,1,4.44-3.91,53.24,53.24,0,0,1,11.18-8.37,60.06,60.06,0,0,1,7.83-6.15,11.73,11.73,0,0,1,3.32-2.23,60,60,0,0,1,11.18-6.7,35.59,35.59,0,0,1,8.95-5,4.12,4.12,0,0,1,2.23-1.12c3.9-2.23,7.25-4.46,11.15-6.14l-4.44,40.77c-2.24,5-4.47,10.05-6.71,14.52a20.45,20.45,0,0,1-2.23,5c-3.36,9.5-6.17,17.88-8.95,26.81-2.78,10.05-6.13,20.66-9.49,31.27-.54,2.24-1.12,4.47-1.69,7.26a56.62,56.62,0,0,0-3.32,14c-3.93,14-6.17,28.48-7.83,43a569.66,569.66,0,0,0-5.59,82.09,594.55,594.55,0,0,0,5,77.62h.57v2.24c2.78,19.54,6.13,38.53,11.15,57,3.36,13.4,7.28,26.25,11.18,39.09,3.93,10.05,7.25,20.1,11.18,29.6,3.33,8.37,6.71,17.31,11.15,25.13A224.67,224.67,0,0,0,269,938.73a186.07,186.07,0,0,0,11.16,20.11c3.35,6.7,7.28,12.84,11.18,19.54,3.92,5.59,7.25,11.17,11.72,16.75,3.35,5,6.71,10.61,11.18,15.64,3.35,5,7.25,9.49,11.15,14.52a115.45,115.45,0,0,0,11.18,12.84,79.07,79.07,0,0,0,11.15,13.4c.58.56,1.15,1.68,1.69,2.24,3.36,3.35,6.14,6.7,9.49,10,3.36,3.91,7.26,7.26,11.18,11.17,3.36,3.35,7.26,6.7,11.16,10s7.82,6.7,11.75,9.5a85.21,85.21,0,0,0,11.15,8.93,78.55,78.55,0,0,0,11.18,7.82,80.84,80.84,0,0,0,11.15,7.82,77.44,77.44,0,0,0,11.18,7.26,77.44,77.44,0,0,0,11.18,7.26,72,72,0,0,0,11.15,6.14c3.36,2.23,7.26,4.46,11.18,6.7,3.36,1.68,7.26,3.91,11.16,5.58A120.07,120.07,0,0,0,494,1158.2a103.94,103.94,0,0,0,11.18,5.58c2.78,1.12,5.59,2.79,8.37,3.91,1.12,0,1.67.56,2.81,1.12,3.9.56,7.25,2.23,11.15,3.35,3.9,1.67,7.26,2.79,11.18,4.47,3.36,1.12,7.26,2.23,11.16,3.9,3.92,1.12,7.25,2.8,11.17,3.35a36,36,0,0,0,7.26,2.24c1.12.56,2.78.56,3.92,1.11a90.24,90.24,0,0,1,11.73,2.8c3.9.56,7.25,1.68,11.15,2.24,3.36,1.11,7.28,1.67,11.18,2.78s7.83,1.68,11.15,2.79c3.36.56,6.71,1.68,10.07,2.24l1.11,1.12,11.18,12.28,5,5,6.14,6.7,11.18,12.29,6.13,6.7,5,5L685,1262.07l6.71,7.25,4.47,5,11.18,11.73,7.8,8.38,3.35,3.9,11.18,11.73,8.92,9.49Z"/><path class="cls-1" d="M1293.69,616l-5,59.2c-.55,3.35-.55,6.7-1.12,9.49a409.4,409.4,0,0,1-7.25,48,390.45,390.45,0,0,1-10,38.53,303.26,303.26,0,0,1-12.3,34.07c0,1.11-.57,1.67-1.11,2.79-3.36,7.82-7.26,15.64-11.18,22.89a158.28,158.28,0,0,1-12.27,21.22c0,.56,0,.56-.58,1.12A151.89,151.89,0,0,1,1221.08,870a150.59,150.59,0,0,1-11.73,14.52c-.54.56-.54,1.12-1.12,1.12A129.4,129.4,0,0,1,1196,898.52c-3.35,3.35-6.7,6.7-10.06,9.5a3,3,0,0,1-2.23,1.67,95,95,0,0,1-12.3,10,46.47,46.47,0,0,1-8.92,6.71,11.84,11.84,0,0,1-3.35,2.23c-3.9,2.79-8.37,5.58-12.27,7.82-2.81,1.67-5,3.35-7.83,5a16.29,16.29,0,0,0-4.47,2.24c-4.47,2.23-8.37,3.91-12.84,6.14-2.24,1.12-3.93,1.68-6.16,2.79-2.21.56-3.9,1.68-6.14,2.24-2.78,1.11-5,2.23-7.83,3.35a119.06,119.06,0,0,0,7.83-14.52,70.53,70.53,0,0,0,6.14-11.17c2.23-3.91,3.92-7.82,6.16-11.73,4.47-9.49,8.94-19,12.84-29,1.66-3.91,2.78-7.26,4.47-11.17,2.78-7.26,5-14.52,7.83-21.78,4.44-12.84,8.37-26.24,12.27-39.64a35,35,0,0,0,2.23-7.26c.55-1.68.55-3.91,1.12-5.59,2.78-15.63,6.14-33,8.92-49.14,1.14-6.14,2.24-12.29,3.38-17.87,3.9-19.55,4.45-35.74,4.45-54.73v-9.49c0-34.07,0-68.69-7.83-103.31a24.55,24.55,0,0,0-1.09-6.15v-4.46c-3.36-12.85-7.28-25.13-11.18-37.42s-7.83-24-12.27-35.74c-3.93-10.05-7.83-20.66-12.3-30.71-3.9-9.5-7.82-19-12.84-28.48a146.6,146.6,0,0,0-6.16-13.4,92.73,92.73,0,0,1-6.14-8.94c-4.44-6.14-8.37-12.28-12.27-18.43-3.93-6.7-7.83-13.4-12.3-19.54-1.66-2.79-3.9-5-5.59-7.82q-3.32-4.19-6.68-8.38a154.35,154.35,0,0,0-12.3-14.52c-3.89-5-8.37-10.05-12.84-15.63-3.35-3.35-6.13-7.26-9.49-11.73-1.12-1.12-1.69-1.68-2.78-2.79a117.47,117.47,0,0,0-12.3-11.17,115.39,115.39,0,0,0-12.29-11.17c-3.9-3.35-8.38-6.7-12.27-10.05s-8.4-6.7-12.3-9.5c-4.47-3.35-8.37-6.7-12.84-9.49-3.9-2.79-8.38-5.58-12.28-8.37s-7.82-5.59-12.29-8.38c-3.9-2.23-8.37-5-12.3-7.26A140.64,140.64,0,0,0,924,225.05l-8.37-5-.57-.55-3.36-1.68c-3.9-3.35-8.37-5.58-12.84-7.82a50.17,50.17,0,0,0-12.27-6.14c-3.93-2.23-7.83-4.47-12.3-5.59A83.74,83.74,0,0,0,862,192.66a108.56,108.56,0,0,0-12.3-4.47,52.45,52.45,0,0,0-12.27-3.91,70.16,70.16,0,0,0-12.87-4.46c-1.66-.56-3.9-1.12-5.56-1.68l-6.71-1.68a122.63,122.63,0,0,1-12.3-2.79,96.75,96.75,0,0,1-12.27-2.79c-4.47-.56-8.37-1.68-12.29-2.23-3.9-1.68-8.38-2.24-12.27-3.35-1.12-.56-2.24-.56-3.36-1.12l-9.49-1.68L738,160.27l-7.26-1.68-5-3.35-12.29-8.93-12.3-8.94-12.27-8.93-12.84-8.94-2.81-2.23-5-3.35-4.47-3.35-12.27-8.38-6.71-5-5.59-3.91-12.3-8.94-6.13-4.46L614.62,76,597.31,63.1,573.86,46.35v-.56l23.45-5c5.59-.55,11.18-1.67,17.31-2.23a20.05,20.05,0,0,1,6.14-1.12,23.23,23.23,0,0,1,6.13-.55,46.66,46.66,0,0,1,12.3-1.68,20.9,20.9,0,0,1,5.59-.56,27.18,27.18,0,0,1,6.71-.56A99.87,99.87,0,0,1,663.76,33h4.47a7.71,7.71,0,0,1,5,0,6.08,6.08,0,0,1,2.81-.56,49.28,49.28,0,0,1,12.84,0,135,135,0,0,1,24.57,0,90.44,90.44,0,0,1,12.29.56A91.77,91.77,0,0,1,738,33.5c3.92.56,8.37.56,12.29,1.12,4.45.56,8.37,1.12,12.85,1.68,1.66,0,3.89.56,5.56.56h4.47a3.39,3.39,0,0,1,2.24.55c3.92.56,8.39,1.12,12.29,1.68A95.9,95.9,0,0,1,800,41.32a79.21,79.21,0,0,1,12.3,2.8,78.29,78.29,0,0,1,12.27,2.23c4.47,1.12,8.4,1.67,12.87,3.35,3.9.56,7.8,1.68,12.27,2.79A106,106,0,0,1,862,56.4a80.45,80.45,0,0,1,12.27,3.91,79.73,79.73,0,0,1,12.3,3.91,108.12,108.12,0,0,1,12.27,4.47c3.93,1.67,8.4,3.35,12.84,5,3.93,1.68,7.83,3.35,12.3,5,3.9,1.68,7.82,3.35,12.27,5.58a122.65,122.65,0,0,1,12.3,6.15,127.93,127.93,0,0,1,12.29,6.14c.55,0,.55.56,1.1.56l7.82,3.35a11.67,11.67,0,0,1,3.36,2.23A94.56,94.56,0,0,1,986,110c4.47,2.23,8.37,5,12.3,7.26,3.89,2.79,8.37,5,12.27,7.82s8.39,5.58,12.29,8.37,8.37,5.59,12.3,8.38c3.9,3.35,8.37,6.14,12.27,9.49a101.57,101.57,0,0,1,12.84,10.06c3.9,3.35,8.38,6.7,12.3,10.05s8.37,6.7,12.27,10.61c3.93,3.35,8.37,7.26,12.3,11.17S1105,201,1109.39,205c3.93,4.46,8.37,8.93,12.3,13.4a150.3,150.3,0,0,1,12.84,14,156.1,156.1,0,0,1,12.3,14.52c4.44,5,8.37,10,12.27,15.08,4.47,5.58,8.37,11.16,12.27,16.75,1.14,1.67,2.24,2.79,3.38,4.46,3.33,5,6.14,9.5,8.92,14.52,4.47,6.71,8.37,13.41,12.29,20.11,4.48,6.7,8.38,14,12.27,21.22,4.48,8.38,9,16.2,12.85,24.57,4.47,8.38,8.37,16.76,12.3,25.69a244.55,244.55,0,0,1,12.27,27.92,301.93,301.93,0,0,1,12.29,31.27c4.48,12.29,9,25.13,12.3,38,5.56,18.43,10,37.41,14,56.4v5C1288.65,570.16,1293.69,593.06,1293.69,616Z"/></g></g></svg>