<svg xmlns="http://www.w3.org/2000/svg" viewBox="0 0 1239.64 1262.63"><defs><style>.cls-1{fill:#2836F6;}</style></defs><g id="图层_2" data-name="图层 2"><g id="图层_1-2" data-name="图层 1"><path class="cls-1" d="M1200,943.75a14.47,14.47,0,0,0-3.35-2.78,192.35,192.35,0,0,0-17.86-10.62c-6.71-3.35-14-6.69-21.24-10.05-.55,0-1.67-.56-2.24-.56-6.13-2.79-12.27-5-19-7.81-3.35-1.12-6.7-2.79-10.06-3.91l-2.78-1.12c-2.78-1.12-5-2.23-8.37-3.35-6.14-2.24-13.42-5-21.24-7.81-6.68-1.68-14-4.48-21.22-6.71-1.11-.56-1.66-.56-2.78-1.12a31.37,31.37,0,0,1-6.7-2.23c3.35-4.46,6.7-8.94,9.48-13.4a241.65,241.65,0,0,0,21.22-31.83,329.23,329.23,0,0,0,21.24-39.09,279.86,279.86,0,0,0,14-31.83c2.78-6.15,5-12.29,7.25-18.43.58-1.12.58-1.68,1.12-2.8a546,546,0,0,0,20.1-74.82A604.43,604.43,0,0,0,1171,546.15a543,543,0,0,0-13.41-120.62,447.49,447.49,0,0,0-21.22-70.92c-2.8-7.26-5.59-14.52-8.37-21.22-3.92-8.93-7.82-18.44-12.84-26.81a293.81,293.81,0,0,0-21.24-39.09,311.57,311.57,0,0,0-21.22-34.07c-6.7-9.49-13.38-19-21.21-28.48q-10.07-12.56-21.79-25.12-8.39-10.06-18.4-20.11c-1.15-1.12-1.69-1.67-2.81-2.79-6.71-6.7-14-13.4-21.21-19.55s-14-12.28-21.25-17.87c-6.68-5.58-14-11.17-21.21-16.19s-14-10.06-21.21-14.52c-6.71-4.47-14-8.93-21.22-13.4-6.71-3.91-14-7.82-21.21-11.73-6.71-3.91-14.54-7.26-21.79-11.17-6.71-2.79-14-6.14-21.21-9.49h-.58c-6.7-2.79-14-5.59-20.66-8.38-7.26-2.79-14.51-5-21.22-7.26-7.25-2.79-14.5-4.47-21.21-6.7-7.26-2.23-14-3.91-21.22-5.58s-14.53-3.35-21.21-5c-7.28-1.12-14.53-2.23-21.24-3.35C703.54,5.58,696.28,4.47,689,3.91c-6.68-1.12-14-1.68-21.21-2.24-6.71-.56-14-1.11-21.22-1.11-6.7-.56-14-.56-21.21-.56s-14.53,0-21.21.56c-7.29,0-14.54.55-21.25,1.11-7.25.56-14.5,1.12-21.21,2.24-7.25.56-14,1.67-21.21,2.79l-21.79,3.35c-6.71,1.68-14,3.35-21.21,5s-14,3.35-21.22,5.58-14.53,3.91-21.24,6.7c-7.25,2.24-14.51,4.47-21.21,7.26-7.26,2.79-14.51,5.59-21.22,8.38-7.25,2.79-14,6.14-21.21,9.49s-14,6.7-21.24,10.61-14.51,7.82-21.76,12.29-14.54,8.93-21.22,13.4c-7.28,4.46-14.53,9.5-21.24,14.52-7.25,5-14.5,10.61-21.21,16.19-7.26,5.59-14,11.73-21.22,17.87S249,150.22,242.25,156.92c-1.09,1.12-1.66,1.67-2.78,2.79q-10.07,10-18.43,20.11a216.72,216.72,0,0,0-21.22,24.56,311.59,311.59,0,0,0-21.21,28.48,248.15,248.15,0,0,0-21.79,34.07,258.64,258.64,0,0,0-21.21,38.53,256.75,256.75,0,0,0-13.42,27.93c-2.78,6.7-5.59,12.84-7.82,19.54-8.92,22.9-15.63,46.35-21.22,69.8a533.07,533.07,0,0,0-14,123.42c0,29,2.24,49.14,6.16,73.71a41.46,41.46,0,0,0,7.8,19,38.68,38.68,0,0,0,21.22,15.08,36.46,36.46,0,0,0,19,1.67,3.44,3.44,0,0,0,2.24-.55,41.23,41.23,0,0,0,21.21-11.17c9.49-9.5,14.54-22.34,12.3-36.3-3.35-21.78-5-36.86-5-61.43,0-39.09,4.47-77.63,14.53-113.92a369.24,369.24,0,0,1,21.21-63.66A354.32,354.32,0,0,1,221,324.46a338.86,338.86,0,0,1,21.21-35.75c6.71-9.49,13.42-19,21.24-27.92a171.35,171.35,0,0,1,21.22-24.57c3.9-5.59,9.49-11.17,14.53-16.2a65.6,65.6,0,0,1,6.68-6.14,224.32,224.32,0,0,1,21.24-19c6.68-6.14,14-12.28,21.22-16.75q10.88-9.21,21.76-16.76a160.59,160.59,0,0,1,21.24-12.28,161,161,0,0,1,21.21-12.29,147.47,147.47,0,0,1,21.22-10A113.64,113.64,0,0,1,455,117.83,97.13,97.13,0,0,1,476.26,110c6.68-2.79,14-5,21.22-7.26a130.38,130.38,0,0,1,21.21-5,150.68,150.68,0,0,1,21.79-5,88.49,88.49,0,0,1,21.21-2.79,91.89,91.89,0,0,1,21.21-2.79A90.26,90.26,0,0,1,604.15,86c6.68-1.12,14-1.12,20.64-1.12h.57c7.25,0,14,0,21.21,1.12a90,90,0,0,1,21.22,1.12c7.25.55,14.53,1.11,21.21,2.79a147.23,147.23,0,0,1,21.79,3.34A95.85,95.85,0,0,1,732,97.73c7.25,1.11,14,3.35,21.21,5,7.26,2.24,14.51,4.47,21.22,7.26,7.25,2.24,14.5,5,21.21,7.82,7.26,2.79,14.54,5.58,21.22,9.5a180.24,180.24,0,0,1,21.24,10,159.09,159.09,0,0,1,21.21,11.73,234.69,234.69,0,0,1,21.79,13.4c7.25,5,14.5,10.06,21.21,15.64a152.53,152.53,0,0,1,21.22,17.31,227.77,227.77,0,0,1,21.21,19,54.62,54.62,0,0,1,6.16,5.58A201.2,201.2,0,0,1,966,236.78a214.91,214.91,0,0,1,21.25,24.56c7.82,8.94,14.5,19,21.21,28.49,7.83,11.72,14.53,23.45,21.21,35.18,8.38,14.52,15.08,29.6,21.79,44.68,8.94,21.22,15.65,43.55,21.21,65.89a453.46,453.46,0,0,1,13.42,110.57,519,519,0,0,1-13.42,118.38,548,548,0,0,1-21.21,70.93,314.28,314.28,0,0,1-15.08,34.07c-2.23,4.46-4.47,8.93-6.71,12.84A403,403,0,0,1,1008.44,817c-6.71,9.5-13.39,18.43-21.21,26.25a98.7,98.7,0,0,1-7.28,8.38c-1.1,1.67-2.21,2.79-3.33,4.46A88,88,0,0,1,966,851.62a168.09,168.09,0,0,1-21.21-8.38c-7.25-2.79-14.51-6.14-21.21-8.94-7.26-3.35-14.51-6.7-21.22-10-7.25-3.35-14.53-7.26-21.21-11.16a202.79,202.79,0,0,1-21.79-12.29c-1.12-.56-1.66-1.12-2.81-1.67-6.13-3.92-12.27-7.83-18.4-10.62a126,126,0,0,0-21.24-10.61,132,132,0,0,0-20.65-8.37H679.51a58,58,0,0,0-11.72,6.13c-5,2.24-9.49,5.59-14,9a41.92,41.92,0,0,0-7.26,6.69,86.32,86.32,0,0,0-21.21,27.92,98.1,98.1,0,0,0-9.49,24c-6.16,22.9-4.47,48,4.47,72,1.67,3.92,3.33,7.83,5,11.73a143.14,143.14,0,0,0,21.21,34.63c2.78,3.91,6.14,7.26,8.95,10.6-2.81,0-5.59-.55-8.95-.55-6.7-.56-14-1.12-21.21-2.23-6.71-.56-14-1.12-21.21-2.24-6.71-1.11-14-2.23-21.25-3.35-6.68-1.11-14-2.23-21.21-3.91a165.74,165.74,0,0,1-21.21-5c-7.28-1.68-14.54-3.35-21.79-5.59s-14.51-4.47-21.21-6.7a137.5,137.5,0,0,1-21.22-8.38c-7.28-2.79-14.53-5.58-21.24-9.48A158.53,158.53,0,0,1,433.81,913c-3.9-1.67-7.83-4.46-11.73-6.7-3.35-2.23-6.13-4.47-9.49-6.7A185.75,185.75,0,0,1,391.38,884c-7.28-5-14.54-10.61-21.24-16.19-7.8-6.15-14.51-12.29-21.76-19-7.26-6.14-14.54-12.28-21.22-19-7.28-6.7-14.53-13.4-21.24-20.11l-21.21-21.22c-5.59-6.14-11.73-12.29-17.32-17.86-.54-.56-.54-.56-1.12-1.12h-2.78v-2.8c-7.28-7.82-14.53-15.08-21.24-21.22C235,737.69,227.75,731,221,724.85c-5.56-4.47-10.61-8.94-15.63-13.4a20,20,0,0,0-5.59-3.91,72.91,72.91,0,0,0-21.21-12.29A91,91,0,0,0,156.82,688c-6.13-1.67-12.29-2.23-19-2.79h-2.23a132.79,132.79,0,0,0-21.24.56,89.53,89.53,0,0,0-21.22,4.47,139,139,0,0,0-21.21,8.38l-3.35,1.67A134.77,134.77,0,0,0,15,755.57C2.68,780.14-2.34,810.29,1,841c4.47,36.85,27.92,79.29,70.92,129,2.78,3.34,5.59,6.7,8.94,10,3.9,4.47,7.8,8.93,12.27,13.4,6.71,7.26,14,14.52,21.22,21.78,6.71,6.7,14,13.4,21.24,20.1,1.12,1.68,2.78,2.79,4.47,4.47,5.59,5,11.15,10,16.74,15.07,7.26,6.15,14.54,12.85,21.79,19,7.25,5.59,14,11.73,21.21,17.88,7.26,5.57,14.51,11.16,21.22,16.75,7.25,6.14,14.53,11.17,21.21,16.75,7.28,5.59,14.54,11.17,21.24,16.19,7.26,5.59,14.51,10.62,21.22,15.64,7.25,5,14.53,10.05,21.21,14.52l10.06,6.7a46.54,46.54,0,0,0,6.71,4.47c1.66,1.11,2.78,1.67,4.47,2.79,6.68,4.47,14,8.38,21.22,12.29s14.5,7.81,21.76,11.16c6.7,3.91,14,6.71,21.24,10.06,6.68,2.79,14,5.58,21.21,8.37,6.71,2.8,14,5,21.22,7.26,6.7,2.23,14,4.47,21.21,6.15,6.71,2.23,14,3.91,21.24,5.58,6.68,1.68,14,2.79,21.22,4.46,6.7,1.12,14,2.24,21.21,3.36s14.51,2.23,21.79,2.79c6.68,1.12,14,1.68,21.21,2.24,6.71.56,14,1.11,21.21,1.67,6.71.56,14,.56,21.25.56a132.42,132.42,0,0,0,21.21.56,145.71,145.71,0,0,0,15.62.56h478.57c5,0,10.64,0,16.77-.56a148.33,148.33,0,0,0,21.22-2.79c7.28-1.12,14.53-2.8,21.24-6.15a79.27,79.27,0,0,0,21.21-11.72,31.54,31.54,0,0,0,5-3.92c29.61-26.8,33.51-65.89,33.51-93.25,0-34.63.55-58.64.55-79.86.57-16.75.57-30.71.57-47.47C1239.64,987.31,1226.22,962.75,1200,943.75ZM582.9,1178.3v-2.23a131.5,131.5,0,0,1-21.21-1.67c-7.25-.56-14.53-1.12-21.21-2.8-7.28-.56-15.08-1.68-21.79-2.79-7.25-1.68-14.51-2.79-21.21-4.47-7.26-1.68-14.54-3.35-21.22-5.58-7.28-1.68-14.53-3.92-21.24-6.15-7.25-2.23-14.51-5-21.21-7.81-7.26-2.8-14.51-5.59-21.22-9.5-7.25-2.79-14-6.7-21.21-10.61s-14-7.82-21.24-12.29c-.55-.56-1.09-.56-1.67-1.12q-9.2-5.85-20.09-13.4c-6.71-4.46-14-9.49-21.22-15.08-6.71-5-14-10-21.24-15.63-6.68-5-14-10.61-21.21-16.19-6.71-5.59-14-11.17-21.22-16.75-6.7-5.59-14-11.73-21.24-17.88-7.25-5.58-14.5-11.72-21.21-17.86-7.26-6.7-14.51-12.85-21.22-19-.54-1.12-1.69-1.68-2.23-2.23-6.71-6.15-12.85-11.73-19-17.32-7.83-7.81-15.08-15.64-21.79-22.33-7.82-8.39-15.08-16.2-21.21-23.46a310.71,310.71,0,0,1-21.24-26.81c-10.58-14-17.29-25.13-21.22-33.5-5.56-11.17-7.25-18.43-7.8-22.34-2.23-20.1,1.67-33.5,7.8-42.44,5-7.26,11.18-11.17,15.65-14a16.56,16.56,0,0,1,5.57-2.23v-3.35h21.24v.56c5.59,1.12,11.72,3.34,16.2,6.69a36.63,36.63,0,0,1,5,4.47q10.06,8.38,21.79,20.11c6.71,6.7,14,14,21.21,21.78,2.24,2.23,5,4.46,7.26,7.26,4.47,4.46,8.94,9.49,14,14,6.71,7.26,14,14.52,21.21,21.78,6.71,6.7,14,13.4,21.24,20.1,6.68,6.7,14,13.4,21.22,19.54,6.71,6.15,14,12.29,21.21,18.44,6.71,6.13,14,11.72,21.24,17.86,6.68,5,14,10.62,21.22,15.63a216.81,216.81,0,0,0,21.76,15.64c1.69,1.12,3.92,2.8,5.59,3.92,5,3.35,10.6,6.7,15.65,9.48a200,200,0,0,0,21.21,11.74,148.6,148.6,0,0,0,21.22,10c7.25,3.35,14,6.14,21.21,8.93,6.71,2.8,14,5,21.24,7.26a182.32,182.32,0,0,0,21.22,6.7c7.25,2.24,14.5,4.47,21.21,5.59a153.33,153.33,0,0,0,21.79,5c7.25,1.68,14.5,3.35,21.21,4.47,7.25,1.12,14.53,2.24,21.21,3.35,7.28,1.12,14.54,2.23,21.25,2.79,7.25,1.12,14.5,1.68,21.21,2.23a140.75,140.75,0,0,0,21.21,1.68c7.26.56,14.51,1.12,21.22,1.12,7.25.56,14.53.56,21.21.56,7.83.55,15.11.55,21.79.55h15.65a17.62,17.62,0,0,0,5.59-.55,107.19,107.19,0,0,0,21.21-2.24c1.12,0,2.79-.56,3.9-.56a70,70,0,0,0,17.32-6.69c13.41-7.83,19-18.44,21.21-25.7V995.13c-1.66-8.38-6.71-17.31-16.19-26.24a36.6,36.6,0,0,0-5-4.47c-5-5-10.61-9.49-16.74-14.52-1.69-1.12-2.81-2.23-4.48-3.35-6.7-5.58-14-11.73-21.21-18.43-7.83-6.7-15.65-14.52-21.24-22.34-4.47-6.14-8.37-12.28-10.61-19-2.78-8.94-6.13-25.14,6.71-35.74a5.07,5.07,0,0,1,3.9-1.68c5.59-4.46,12.84-6.14,21.24-6.14a70.67,70.67,0,0,1,21.21,1.68c7.26,1.11,14,3.34,21.22,6.14a147.92,147.92,0,0,1,21.21,10.05A144.37,144.37,0,0,1,811.32,870a46.49,46.49,0,0,0,5.57,3.35c6.7,4.47,14,8.38,21.24,12.29,6.68,3.91,14,7.82,21.21,11.17,7.25,3.91,14.51,7.26,21.79,10.61s14,6.14,21.21,9.49c7.26,2.79,14,6.15,21.22,8.94s14.5,5.58,21.21,8.37c7.25,2.8,14.53,5,21.21,7.82,7.28,2.23,14.54,5,21.25,7.82,7.25,2.24,14.5,4.47,21.21,7.26,7.25,2.23,14.53,4.47,21.21,6.7,4.48,1.68,8.95,2.8,13.42,4.47,2.78,1.12,5.59,1.68,8.37,2.79,7.83,2.23,14.51,5,21.21,7.26,7.83,2.79,14.54,5,20.13,7.26l1.09.56,1.69.55a204.73,204.73,0,0,1,19.55,7.83,149.25,149.25,0,0,1,21.21,9.49,19.62,19.62,0,0,1,5,2.24c10.61,5.58,12.84,8.93,13.42,9.48v1.12c.54,15.64,0,29.6,0,45.8-.58,21.77-1.12,45.79-1.12,81.53,0,24.57-5,29.6-5,29.6s-2.23,2.23-12.3,3.34v1.12Z"/><path class="cls-1" d="M581.79,527.16l-3.9,5.59-2.81,3.91-3.33,5-.57.56-3.9,6.14-1.69,2.24L563.35,554l-1.66,2.23L560,558.44l-.58,1.12-3.9,5.58-2.8,3.9c0-.55-.55-1.11-1.12-1.67-.55-2.23-2.24-4.47-3.9-7.26a43,43,0,0,0-3.9-6.7q-1.68-2.5-3.35-5l-.58-.55a20.64,20.64,0,0,0-3.32-5.59c-1.15-1.68-2.24-3.91-3.93-5.58a38.3,38.3,0,0,0-3.9-6.14c-1.12-1.68-2.24-3.36-3.93-5.59a58.68,58.68,0,0,1-3.89-6.14c-.55-.56-1.12-1.68-2.24-2.79-.55-1.12-1.12-1.68-1.66-2.8a33.78,33.78,0,0,1-3.93-5.58,34.57,34.57,0,0,1-3.9-5.59c-.55-.55-1.12-1.67-1.69-2.23V748.3h-50.8V519.35c-.57,1.11-.57,1.67-1.12,2.79,0,.56-.57.56-.57,1.12-1.12,2.78-2.21,5-3.35,7.81s-2.24,5.59-3.9,8.93c-1.12,2.8-2.24,5.59-3.9,8.94-1.12,2.8-2.24,5.58-3.93,8.94-1.09,2.23-2.24,5-3.9,7.82a20.62,20.62,0,0,1-2.23,5c-.55,1.12-1.12,2.24-1.67,3.36-1.12,2.22-2.23,4.46-3.35,6.69a53.33,53.33,0,0,1-3.9,7.83c-1.15,2.78-2.81,5-3.93,7.81-1.12,2.23-2.78,4.47-3.9,6.71a40.52,40.52,0,0,1-3.92,6.69,1.75,1.75,0,0,1-.55,1.12c-1.12,1.67-2.23,3.91-3.35,5.59a38.67,38.67,0,0,1-3.9,6.13,41,41,0,0,1-3.93,6.71,20,20,0,0,1-3.9,5.58,36.87,36.87,0,0,1-3.92,6.14,9.51,9.51,0,0,1-2.21,2.8c0,.56-.58,1.12-1.12,1.68-1.12,2.23-2.81,3.9-3.93,5.57-.54,1.12-1.66,1.68-2.23,2.8a31.75,31.75,0,0,1-1.67-3.91c-1.11-2.79-2.23-5.58-3.9-8.94-1.11-2.23-2.23-5-3.92-7.81-1.12-2.79-2.78-5-3.9-7.82a1.72,1.72,0,0,1-.57-1.12c-4.48-7.81-8.92-15.64-12.27-21.77a193.92,193.92,0,0,0,12.27-15.64l.57-.56c1.12-1.68,2.78-3.91,3.9-5.59a19.61,19.61,0,0,0,3.92-5.58c1.1-1.67,2.79-3.91,3.9-5.59,1.12-2.23,2.79-3.9,3.9-6.14s2.81-4.46,3.93-6.7c.54-.56,1.12-1.12,1.12-1.68a8.81,8.81,0,0,0,2.21-3.9,22.92,22.92,0,0,0,3.92-6.14c1.12-2.24,2.78-4.48,3.9-6.71a41.39,41.39,0,0,1,3.93-6.7,29.64,29.64,0,0,1,3.9-7.26l3.35-6.7a2,2,0,0,1,.55-1.12c1.11-2.79,2.81-5.59,3.92-7.81,1.67-2.79,2.78-5.59,3.9-7.82,1.12-2.8,2.78-5.59,3.93-8.38s2.78-5,3.9-7.82,2.23-5.58,3.35-7.81a27.39,27.39,0,0,1,1.67-3.92c.57-2.23,1.66-3.91,2.23-5.58,1.66-3.35,2.81-6.7,3.9-9.49a74.22,74.22,0,0,0,3.93-10.05,77.71,77.71,0,0,0,3.9-10.06H369.05V389.23h87.66V307.7h-1.12a.56.56,0,0,0-.57.56,7.1,7.1,0,0,0-3.35.56,9.48,9.48,0,0,0-3.9.56c-1.67,0-2.78.56-3.9.56a11.2,11.2,0,0,1-3.93.55,9.37,9.37,0,0,1-3.9.56,3.34,3.34,0,0,1-2.23.56c-.55,0-1.12.55-1.67,0a7.18,7.18,0,0,1-3.35.55c-1.12.56-2.81.56-3.9,1.12-1.15,0-2.24.56-3.93.56-1.12,0-2.23.56-3.9.56-1.11,0-2.23.55-3.92.55h-.55a7.06,7.06,0,0,1-3.35.56,9.44,9.44,0,0,1-3.9.56,9.58,9.58,0,0,1-3.93.56,5502.21,5502.21,0,0,1-7.82,1.12c-.55,0-1.67.56-2.21.56h-1.12c-1.12,0-2.81.56-3.93.56h-.54a59.11,59.11,0,0,0-3.36-12.29,81.12,81.12,0,0,0-3.9-10.61,60.33,60.33,0,0,0-3.92-8.94c-1.12-2.79-2.78-5.58-3.9-8.37,1.12,0,2.78-.56,3.9-.56,1.12-.56,2.81-.56,3.92-1.12a10.83,10.83,0,0,0,3.9-.56c1.12,0,2.24-.56,3.9-.56a10.41,10.41,0,0,0,3.93-1.11c.54.56.54,0,1.12,0a3.3,3.3,0,0,0,2.21-.56,9.48,9.48,0,0,0,3.92-.56c1.12,0,2.24-.56,3.9-.56a14.31,14.31,0,0,0,3.93-1.11,10.86,10.86,0,0,0,3.9-.56c1.12,0,2.23-.56,3.35-.56h.55c1.11-.56,2.23-.56,3.92-1.12,1.12,0,2.24-.56,3.9-.56,1.12-.55,2.78-.55,3.93-1.11,1.09,0,2.78-.56,3.9-.56a7.06,7.06,0,0,1,3.35-.56,2.06,2.06,0,0,1,1.67-.55c1.11,0,1.66-.56,2.23-.56a10.86,10.86,0,0,1,3.9-.56,14.39,14.39,0,0,1,3.93-1.12,36.51,36.51,0,0,0,3.9-1.12c1.11,0,2.81-.56,3.9-.56,1.14-.56,2.23-.56,3.35-1.12h.57c1.12-.55,2.78-.55,3.9-1.11,1.12,0,2.81-.56,3.9-.56a10.56,10.56,0,0,1,3.93-1.11c1.12-.56,2.23-.56,3.35-1.12a10.29,10.29,0,0,0,3.9-1.12h1.69a3.33,3.33,0,0,1,2.24-.56,13.88,13.88,0,0,1,3.9-1.11,36.51,36.51,0,0,0,3.9-1.12,35.05,35.05,0,0,0,3.92-1.12,33.92,33.92,0,0,0,3.9-1.11c1.12-.56,2.24-.56,3.36-1.12H498c1.12-.56,2.81-.56,3.93-1.12a14,14,0,0,1,3.9-1.12c1.11-.56,2.23-.56,3.35-1.12a14.23,14.23,0,0,1,3.9-1.11A27.08,27.08,0,0,0,517,244a2,2,0,0,0,1.66-.56c1.12,0,1.69,0,2.24-.56a33.71,33.71,0,0,0,3.89-1.12,27.08,27.08,0,0,1,3.93-1.67,10.29,10.29,0,0,0,3.9-1.12c1.12-.56,2.78-1.12,3.93-1.67s2.21-.56,3.32-1.12a.55.55,0,0,0,.58-.56,8,8,0,0,0,3.35-1.12c1.12-.56,1.66-.56,2.78-1.12l1.12,1.68,3.9,5.59,3.92,5.58,3.9,5,.58,1.11,1.66,2.24,1.66,2.23,2.24,3.35,1.69,2.23,3.9,5.59.57.56,3.33,5,1.69,2.23c-.55,0-1.12.56-1.69.56a7.71,7.71,0,0,1-3.33,1.12h-.57a28,28,0,0,1-3.9,1.68c-.57,0-1.12.56-1.69.56-.55.56-1.09.56-2.24.56a2,2,0,0,1-1.66.56,2.07,2.07,0,0,1-1.66.55.55.55,0,0,1-.58.56c-1.11.56-2.23.56-3.9,1.11a10.33,10.33,0,0,1-3.92,1.12c-1.09.56-2.78,1.12-3.9,1.68a39.31,39.31,0,0,0-3.9,1.11c-1.12.56-2.24.56-3.35,1.12h-.58c-1.11.56-2.23.56-3.32,1.12a8.21,8.21,0,0,0-3.93,1.11,8.08,8.08,0,0,0-3.9,1.12c-1.69,0-2.81.56-3.93.56a14,14,0,0,1-3.89,1.12,3.38,3.38,0,0,1-2.24.56,2,2,0,0,1-1.66.56c-1.12.56-2.81.56-3.93,1.12-1.12,0-2.78.55-3.9.55a2.06,2.06,0,0,1-1.69.56v92.7H579v48.58H507.51v11.73l1.69,1.67a24.5,24.5,0,0,0,3.9,3.35c1.12,1.68,2.81,2.8,3.93,3.91.54,1.12,1.11,1.68,1.66,1.68.54,1.12,1.69,1.68,2.24,2.24a13,13,0,0,0,3.89,3.9c1.12,1.12,2.24,2.79,3.93,3.91a28.85,28.85,0,0,0,3.9,4.47c1.12,1.12,2.78,2.8,3.93,3.91s2.21,2.23,3.32,3.35a.55.55,0,0,0,.58.55l3.35,3.36a13.33,13.33,0,0,0,3.9,3.91,13.1,13.1,0,0,0,3.9,3.91,15,15,0,0,0,3.92,4.46,13.1,13.1,0,0,0,3.9,3.91c0,.56,0,.56.58.56a7.22,7.22,0,0,0,1.66,2.24c.57.56,1.12,1.12,1.66,1.67,1.15,1.12,1.69,2.24,2.24,2.79s1.12,1.12,1.69,1.67c1.66,1.12,2.78,2.8,3.9,3.92a.56.56,0,0,0,.57.56,26.3,26.3,0,0,0,3.33,3.91,14.66,14.66,0,0,1,2.81,3.35C579.55,524.37,580.67,526,581.79,527.16Z"/><path class="cls-1" d="M881.13,643.32a9.06,9.06,0,0,0-5-1.68,20.64,20.64,0,0,0-6.13-2.79,23.34,23.34,0,0,0-5.59-2.24c-1.66-1.11-3.36-1.67-5-2.79-.57,0-.57,0-1.12-.55a13.18,13.18,0,0,1-6.13-3.35,48.78,48.78,0,0,1-5.59-3.35c-.57-.56-1.69-1.12-2.24-1.68-.54,30.16-1.69,47.47-3.92,57-.55,3.35-1.09,5.59-2.21,7.26-1.12,2.79-2.24,3.91-3.93,4.46a9.44,9.44,0,0,1-3.9.56H798.45c-1.09,0-2.21,0-2.78-.56a7.18,7.18,0,0,1-3.35-.55c-3.36-1.67-3.9-5.58-3.9-15.64V524.93H856V341.2H797.91c0-.55.54-.55.54-1.11,2.24-3.35,3.93-7.26,6.17-11.18a94.23,94.23,0,0,1,5.59-10.6,138.55,138.55,0,0,1,6.13-13.41,1.92,1.92,0,0,0,.55-1.11,112.3,112.3,0,0,0,5.59-11.73c2.23-3.91,3.9-8.38,6.13-12.84,1.69-3.91,3.93-7.82,5.59-11.73,1.12-2.79,2.81-6.15,3.93-8.93.54-1.68,1.66-3.36,2.21-5,1.14-2.23,1.69-4.47,2.8-6.71l-2.8-1.11-2.21-.56L834.2,244l-5.59-1.68-6.13-1.67-5.59-2.24h-.55l-6.13-1.67-5.59-1.68-6.17-2.24-2.78-.55-3.35-1.12L789,230.08c-.54,2.23-1.66,5-2.23,7.26-1.67,5.58-3.9,11.72-6.14,17.86a136.2,136.2,0,0,1-6.13,16.2c-1.69,5-3.93,10.05-5.59,15.08-2.24,4.46-3.9,9.49-6.14,14.51-2.23,4.47-4.47,9.5-6.16,14-1.09,2.8-2.21,5.59-3.33,7.83a19.54,19.54,0,0,0-2.23,5,128.19,128.19,0,0,0-6.16,12.29c0,.56-.55.56-.55,1.11H671.71l1.67-.55,5.59-2.79,6.13-2.24,3.9-1.68,2.24-1.11,5.59-2.8L703,327.8l3.36-1.67c-1.12-2.79-1.67-5.59-3.36-8.94-1.66-5-3.9-10.05-6.13-15.08-1.67-3.91-3.9-7.25-5.59-11.17A8.67,8.67,0,0,0,689,287a29.24,29.24,0,0,0-3.9-7.25A114.6,114.6,0,0,0,679,268.05c-1.69-2.79-3.93-6.15-5.59-8.94a48.07,48.07,0,0,0-5.59-8.93c0-.56,0-.56-.55-1.12A100.65,100.65,0,0,1,661.08,239a65,65,0,0,1-5.56-7.82L649.35,234l-2.78,1.12-3.35,1.12-5.59,2.23-6.14,2.79-6.13,2.8-5.59,2.23-6.14,2.23-2.23,1.12c.54,1.12,1.66,2.24,2.23,3.35a93.47,93.47,0,0,1,6.14,10,74.88,74.88,0,0,1,5.59,8.38c2.24,3.91,4.47,7.26,6.13,11.17,2.24,3.91,4.48,7.26,6.14,11.17a99.36,99.36,0,0,1,5.59,11.16c1.12,2.8,2.81,5,3.35,7.82,1.12,2.23,2.24,3.91,2.78,6.15a85.44,85.44,0,0,1,6.17,15.07,38.18,38.18,0,0,1,2.78,7.26H594.08V524.93h56.39c-.54,3.35-.54,6.7-1.12,10.05-.54,7.82-1.66,15.64-2.78,22.9a103.36,103.36,0,0,1-3.35,19c-1.12,7.82-3.35,15.08-5.59,22.34a99.43,99.43,0,0,1-6.14,18.43c-1.66,5-3.89,10-6.13,15.08a92.71,92.71,0,0,1-5.59,10c-1.66,3.35-3.9,6.14-6.14,9.49-1.69,2.8-3.92,5-6.16,7.82a10.32,10.32,0,0,1-3.32,3.91,16,16,0,0,1-2.81,3.35c-1.67,1.68-3.36,3.91-5.59,5.59a59.84,59.84,0,0,1-6.14,5.58,59.19,59.19,0,0,1-6.13,5,.55.55,0,0,1-.58.56,1.89,1.89,0,0,1-1.11.55,10.12,10.12,0,0,1-3.9,2.8,5.65,5.65,0,0,1-2.81,2.23,11,11,0,0,1-3.33,2.23h-.57a10.1,10.1,0,0,1-3.9,2.79,2.08,2.08,0,0,1-1.69.56c-.55,1.12-1.09,1.68-2.24,1.68-.54.56-1.09,1.12-1.66.56-.57,1.12-1.12,1.12-1.66,1.12l-.58.55a5,5,0,0,1-3.9,1.68,9,9,0,0,1-3.92,2.23,5.94,5.94,0,0,1-3.9,1.68,9.15,9.15,0,0,1-3.9,2.23l-3.35,1.67v.56a9.57,9.57,0,0,1,3.35,3.36,17.48,17.48,0,0,1,3.9,3.34,30.53,30.53,0,0,1,3.9,4.47c1.12,1.12,2.23,2.79,3.92,4.47,1.12,1.68,2.79,3.35,3.9,5.58a.55.55,0,0,1,.58.56,13.63,13.63,0,0,1,1.66,2.79,7.22,7.22,0,0,1,1.66,2.24c.58,1.11,1.69,2.23,2.24,3.35s1.12,2.24,1.69,3.35c1.66,1.67,2.24,3.91,2.78,5.58h5v-.56c1.14,0,1.69-.55,2.81-1.11a14.09,14.09,0,0,0,3.9-2.24c.57.56.57,0,1.11-.55h.58a59.39,59.39,0,0,0,6.13-3.35,23.07,23.07,0,0,0,6.14-3.91,25.64,25.64,0,0,0,5.59-2.8c1.11-.55,1.66-1.11,2.81-1.67,1.09-1.12,2.23-1.68,3.32-2.79,2.24-1.12,3.93-2.79,6.16-4.47a17.24,17.24,0,0,0,6.14-5,22,22,0,0,0,5.59-4.46,28.66,28.66,0,0,0,6.13-5.59,31.6,31.6,0,0,0,6.14-6.14c1.69-1.68,3.93-3.91,5.59-5.58,1.12-1.68,2.24-2.8,3.35-4.48,1.12-1.11,1.69-2.22,2.78-3.34,2.24-2.79,3.93-5.59,6.17-8.38,1.66-2.8,3.9-5.58,5.56-8.93a72.72,72.72,0,0,0,6.16-11.17c.55,0,.55-.56.55-1.12,2.23-3.91,4.47-7.82,5.59-12.29,2.23-4.46,4.47-8.93,5.59-13.4a107.61,107.61,0,0,0,6.13-19,99.21,99.21,0,0,0,3.9-14,44.81,44.81,0,0,0,2.24-9.5c2.23-10,3.92-20.66,5.59-31.27,1.69-11.73,2.81-24,3.9-36.3H740.4v153c0,16.19,1.12,28.48,4.45,38A24.33,24.33,0,0,0,751,727.09a4.33,4.33,0,0,0,2.23,2.23,15.65,15.65,0,0,0,3.33,2.79,13.52,13.52,0,0,0,6.16,3.35,19.83,19.83,0,0,0,6.14,2.23c1.66.56,3.35.56,5.59,1.12,1.66,0,3.9.56,6.13.56,1.69,0,3.9.56,6.14.56h51.4c1.12,0,1.66,0,2.21-.56a21.07,21.07,0,0,0,6.16-.56,9.47,9.47,0,0,0,5.59-1.68,8.4,8.4,0,0,0,6.13-2.23c.55.56,1.12-.56,1.12-.56a22.53,22.53,0,0,0,5-2.79,29.75,29.75,0,0,0,5.59-6.14,47.83,47.83,0,0,0,6.13-10.61c2.24-4.47,3.93-10.61,5-17.31,2.78-13.4,5-30.16,6.13-52.49C885.6,644.44,883.36,643.88,881.13,643.32ZM643.79,478.58V387H804v91.59Z"/></g></g></svg>