<svg xmlns="http://www.w3.org/2000/svg" viewBox="0 0 1268.2 1268.21"><defs><style>.cls-1{fill:#2836F6;}</style></defs><g id="图层_2" data-name="图层 2"><g id="图层_1-2" data-name="图层 1"><path class="cls-1" d="M970,111.69V0H857.75V111.69H410.45V0H298.76V111.69H0V1268.21H1268.2V111.69Zm18.43,416.59-65.36,65.35L901.29,615.4l-21.76,21.78L836,680.74,814.2,702.52l-21.79,21.77-21.78,21.79L748.87,767.3,543.35,972.8l-77.63-77.62L444,873.4l-21.78-21.78L279.76,709.22l11.72-11.73,67.57-67.57,19.55,19.55,21.79,21.78L444,714.81l21.76,22.33,21.79,21.78,55.84,55.85,53-53.06,21.79-21.78L640,718.16l43.55-43.56,21.79-21.78L727.08,631l21.79-21.22L913.05,445.63l31.82,31.84,21.78,22.34,21.79,21.78Z"/></g></g></svg>