<svg xmlns="http://www.w3.org/2000/svg" viewBox="0 0 1490.47 1490.47"><defs><style>.cls-1{fill:#2836F6;}.cls-2{fill:none;}</style></defs><g id="图层_2" data-name="图层 2"><g id="图层_1-2" data-name="图层 1"><path class="cls-1" d="M1443,483.61c-7.8-20.67-16.19-40.77-25.68-60.31-7.8-16.2-16.2-32.39-25.69-48-7.8-14.52-16.74-28.48-25.68-41.88-8.38-12.85-16.75-24.57-25.69-36.86-7.8-10.61-16.2-20.66-25.14-30.71-7.8-10-16.74-20.11-25.69-29.6-8.37-8.94-16.74-17.31-25.68-25.69-8.37-8.38-16.75-16.19-25.69-24-8.37-7.26-16.74-14.52-25.68-21.78-8.38-6.7-16.75-13.4-25.69-20.1-8.37-5.59-16.74-11.73-25.14-17.31s-16.74-11.17-25.69-16.2a237.53,237.53,0,0,0-25.68-15.08c-8.37-5-16.75-9.49-25.69-14-8.37-4.47-17.29-8.93-25.69-12.84s-17.31-7.82-25.68-11.73c-8.37-3.35-16.74-6.7-25.14-9.5-8.37-3.35-16.74-6.7-25.69-9.49-8.37-2.79-16.74-5.58-25.68-7.82-8.37-2.79-17.29-5-25.69-7.26S913.62,19,905.22,17.31s-16.74-3.35-25.68-5c-8.37-1.67-16.74-2.79-25.14-4.46C846,6.7,837.11,5.58,828.71,5,820.34,3.91,811.42,2.79,803,2.79a199.31,199.31,0,0,0-25.69-1.67C769,.56,760.05,0,751.65,0H745c-6.14,0-12.82,0-19,.56-8.37,0-17.32,0-25.69,1.12a189.89,189.89,0,0,0-25.14,1.67c-8.91.56-17.29,1.68-25.68,2.79-8.92,1.12-17.29,2.24-25.69,3.91-8.37,1.12-17.29,2.79-25.69,4.47s-17.31,3.91-25.68,5.58c-8.95,2.24-17.32,4.47-25.69,6.7s-16.74,5-25.14,7.26c-8.91,2.8-17.29,5.59-25.68,8.94-8.92,2.79-17.29,6.14-25.69,9.49-8.92,3.35-17.29,7.26-25.69,11.17a261,261,0,0,0-25.68,11.73c-8.95,4.47-17.32,8.38-25.69,12.84-8.94,5-17.31,9.5-25.14,15.08-8.91,4.47-17.29,10-25.68,15.64-8.92,5-17.29,11.17-25.69,16.75-8.92,6.14-17.29,12.84-25.69,19-8.94,6.7-17.31,13.4-25.68,20.66-8.95,7.26-17.32,15.08-25.69,22.89s-16.74,15.64-25.14,24c-8.92,8.93-17.86,18.43-25.68,27.92-8.92,10.05-17.86,20.11-25.69,30.16-8.92,11.16-17.29,22.33-25.69,34.06-8.94,12.28-17.31,25.13-25.68,38.53-9,14.52-17.86,29-25.69,44.68a745.58,745.58,0,0,0,0,695.25c7.83,15.64,16.74,30.16,25.69,44.68,8.37,13.4,16.74,26.24,25.68,38.53,8.4,11.73,16.77,22.89,25.69,34.06,8.4,10.61,16.77,20.66,25.69,30.72,8.39,9.49,16.76,18.43,25.68,27.36,8.4,8.38,16.77,16.2,25.14,24a323.29,323.29,0,0,0,25.69,22.9c8.37,7.26,16.74,14,25.68,20.66,8.4,6.7,16.77,12.85,25.69,19,8.4,6.14,16.77,11.72,25.69,17.31,8.39,5.58,16.77,10.61,25.68,15.64a272.5,272.5,0,0,0,25.14,14.52c8.37,4.46,16.74,8.93,25.69,13.4,8.37,3.91,17.31,7.82,25.68,11.73s16.77,7.26,25.69,10.61c8.4,3.35,16.77,6.7,25.69,9.49,8.39,3.35,16.77,6.14,25.68,8.94,8.4,2.79,16.77,5,25.14,7.26s16.74,4.46,25.69,6.7c8.37,2.23,17.31,3.91,25.68,5.58s17.32,3.35,25.69,4.47c8.4,1.67,16.77,2.79,25.69,3.91,8.39,1.11,16.77,2.23,25.68,2.79a189.89,189.89,0,0,0,25.14,1.67c8.37,1.12,17.32,1.12,25.69,1.12,6.16.56,12.84.56,19,.56h6.7c8.4,0,17.32-.56,25.69-1.12a199.31,199.31,0,0,0,25.69-1.67c8.39,0,17.31-1.12,25.68-2.24,8.4-.55,17.32-1.67,25.69-2.79,8.4-1.67,16.77-2.79,25.14-4.47,8.94-1.11,17.31-3.35,25.68-5s17.32-3.91,25.69-6.14,17.32-4.47,25.69-7.26c8.94-2.24,17.31-5,25.68-7.82,9-2.79,17.32-6.14,25.69-9.5,8.4-2.79,16.77-6.14,25.14-9.49,8.37-3.91,17.31-7.26,25.68-11.73,8.4-3.91,17.32-7.82,25.69-12.28,8.94-4.47,17.32-8.94,25.69-14,8.94-5,17.31-10.06,25.68-15.08,9-5.59,17.32-11.17,25.69-16.76s16.77-11.16,25.14-17.31c8.94-6.7,17.31-13.4,25.69-20.1,8.94-7.26,17.31-14,25.68-21.78,8.94-7.26,17.32-15.63,25.69-24,8.94-8.38,17.31-16.76,25.68-25.69,8.95-9.49,17.32-19,25.69-29s16.77-20.66,25.14-31.27c8.94-12.29,17.31-24,25.69-36.86,8.94-13.4,17.88-27.36,25.68-41.88,9.49-15.64,17.89-31.83,25.69-48,9.49-19.54,17.88-39.64,25.68-60.31a744.54,744.54,0,0,0,0-523.25Zm-260.21,686.32H313.85V307.7h868.93Z"/><path class="cls-1" d="M803,820.34l-25.69-25.13-25.69-25.68L726,744.4l-25.69-25.69-25.14-24.57-21.76-21.78c-1.12,2.79-2.23,5.58-3.92,8.93-6.68,15.64-15.63,37.42-25.69,62-8.37,19.54-16.74,41.32-25.69,63.1-8.37,21.22-17.31,43-25.68,63.11-9.49,23.45-18.43,45.23-25.69,62-3.9,9.5-7.82,17.87-10.6,24,1.11-.56,5-2.24,10.6-4.47,6.14-2.79,15.08-6.7,25.69-11.73,7.82-3.35,16.2-7.82,25.68-11.73,8.4-3.91,16.77-7.82,25.69-11.72,8.4-3.91,16.77-7.82,25.69-11.73a215.4,215.4,0,0,1,25.68-11.73l25.14-11.72c8.37-3.91,17.32-7.82,25.69-11.73,8.94-4.47,17.31-8.38,25.68-11.73,9.49-4.47,17.89-8.37,25.69-11.73,10.06-5,19-8.93,25.69-12.28,3.35-1.68,6.7-2.79,8.94-3.91Zm0,0-25.69-25.13-25.69-25.68L726,744.4l-25.69-25.69-25.14-24.57-21.76-21.78c-1.12,2.79-2.23,5.58-3.92,8.93-6.68,15.64-15.63,37.42-25.69,62-8.37,19.54-16.74,41.32-25.69,63.1-8.37,21.22-17.31,43-25.68,63.11-9.49,23.45-18.43,45.23-25.69,62-3.9,9.5-7.82,17.87-10.6,24,1.11-.56,5-2.24,10.6-4.47,6.14-2.79,15.08-6.7,25.69-11.73,7.82-3.35,16.2-7.82,25.68-11.73,8.4-3.91,16.77-7.82,25.69-11.72,8.4-3.91,16.77-7.82,25.69-11.73a215.4,215.4,0,0,1,25.68-11.73l25.14-11.72c8.37-3.91,17.32-7.82,25.69-11.73,8.94-4.47,17.31-8.38,25.68-11.73,9.49-4.47,17.89-8.37,25.69-11.73,10.06-5,19-8.93,25.69-12.28,3.35-1.68,6.7-2.79,8.94-3.91Zm0,0-25.69-25.13-25.69-25.68L726,744.4l-25.69-25.69-25.14-24.57-21.76-21.78c-1.12,2.79-2.23,5.58-3.92,8.93-6.68,15.64-15.63,37.42-25.69,62-8.37,19.54-16.74,41.32-25.69,63.1-8.37,21.22-17.31,43-25.68,63.11-9.49,23.45-18.43,45.23-25.69,62-3.9,9.5-7.82,17.87-10.6,24,1.11-.56,5-2.24,10.6-4.47,6.14-2.79,15.08-6.7,25.69-11.73,7.82-3.35,16.2-7.82,25.68-11.73,8.4-3.91,16.77-7.82,25.69-11.72,8.4-3.91,16.77-7.82,25.69-11.73a215.4,215.4,0,0,1,25.68-11.73l25.14-11.72c8.37-3.91,17.32-7.82,25.69-11.73,8.94-4.47,17.31-8.38,25.68-11.73,9.49-4.47,17.89-8.37,25.69-11.73,10.06-5,19-8.93,25.69-12.28,3.35-1.68,6.7-2.79,8.94-3.91Zm0,0-25.69-25.13-25.69-25.68L726,744.4l-25.69-25.69-25.14-24.57-21.76-21.78c-1.12,2.79-2.23,5.58-3.92,8.93-6.68,15.64-15.63,37.42-25.69,62-8.37,19.54-16.74,41.32-25.69,63.1-8.37,21.22-17.31,43-25.68,63.11-9.49,23.45-18.43,45.23-25.69,62-3.9,9.5-7.82,17.87-10.6,24,1.11-.56,5-2.24,10.6-4.47,6.14-2.79,15.08-6.7,25.69-11.73,7.82-3.35,16.2-7.82,25.68-11.73,8.4-3.91,16.77-7.82,25.69-11.72,8.4-3.91,16.77-7.82,25.69-11.73a215.4,215.4,0,0,1,25.68-11.73l25.14-11.72c8.37-3.91,17.32-7.82,25.69-11.73,8.94-4.47,17.31-8.38,25.68-11.73,9.49-4.47,17.89-8.37,25.69-11.73,10.06-5,19-8.93,25.69-12.28,3.35-1.68,6.7-2.79,8.94-3.91ZM313.85,307.7v862.23h6.71c0-2.79,8.37-22.9,21.76-54.73,7.28-16.75,15.65-36.86,25.68-59.75,7.83-17.87,16.2-37.42,25.14-57.52,8.37-19,16.74-38.54,25.69-58.08,8.37-19,16.74-38.53,25.68-57.52,8.4-19.54,17.32-39.09,25.69-58.63,8.94-19.55,17.31-39.1,25.69-57.53,8.94-20.66,17.88-40.2,25.68-58.07,5.59-11.73,10.06-22.9,14.54-33,.57-1.12,1.11-1.67,1.11-2.79,3.36-7.26,6.71-14,9.49-20.11,10.61-24,19.55-44.11,25.69-57,5-11.72,7.82-17.86,7.82-17.86a24.73,24.73,0,0,0,5-2.8c2.81-.55,7.28-2.79,12.84-5,6.71-3.35,15.66-7.26,25.69-11.73,7.83-3.35,16.2-7.26,25.69-11.73,7.82-3.35,16.77-7.26,25.68-11.17,7.83-3.35,16.2-7.26,25.14-11.17,8.37-3.91,16.74-7.26,25.69-11.16,8.37-3.91,16.74-7.82,25.68-11.73,8.4-3.91,16.77-7.26,25.69-11.17,8.4-3.91,16.77-7.82,25.69-11.17,8.39-3.91,16.77-7.82,25.68-11.73,8.4-3.91,17.32-7.82,25.69-11.72,8.4-3.35,16.77-7.26,25.14-11.17,8.37-3.35,17.31-7.26,25.68-11.17s17.32-7.26,25.69-11.17,17.32-7.82,25.69-11.73c8.39-3.35,17.31-7.26,25.68-11.16,9-3.91,17.32-7.26,25.69-11.17,8.94-3.91,17.34-7.26,25.14-11.17,8.94-3.35,17.31-7.26,25.68-11.17,9-3.35,17.32-7.26,25.69-10.61,8.94-4.47,17.89-7.82,25.69-11.17,9.49-4.47,18.43-7.82,25.68-11.17,11.18-4.47,19.55-7.82,25.69-10.61,7.28-2.24,10.63-3.35,9.52-2.24s-4.48,7.82-9.52,18.43c-6.14,13.41-15,32.95-25.69,57-7.8,17.31-16.19,36.85-25.68,58.63-8.37,18.43-16.75,38-25.69,58.64-8.37,19-16.74,38.53-25.69,58.63-8.37,19.55-17.31,40.21-25.68,60.31-8.37,19.55-16.74,39.09-25.14,58.08-8.92,20.67-17.29,40.77-25.69,59.75-8.91,21.78-17.86,41.89-25.68,60.32-10,23.45-19,44.67-25.69,60.87S919.19,898,915.83,905.23v.55c-1.66,3.91-2.78,6.15-2.78,6.15s-2.81,1.11-7.83,3.35c-5.56,2.23-14.5,6.14-25.68,11.17-7.25,2.79-15.63,6.14-25.14,10.61-7.8,2.79-16.17,6.7-25.69,10.61-5.56,2.23-11.15,4.46-16.74,7.26-.55,0-1.12.56-1.66.56a28.48,28.48,0,0,1-7.28,2.79c-7.8,3.91-16.75,7.26-25.69,11.17-8.37,3.91-16.74,7.26-25.69,11.17-8.37,3.35-16.74,7.26-25.68,10.61-8.37,3.91-16.74,7.82-25.69,11.17-8.37,3.91-16.74,7.26-25.14,11.17-8.37,3.35-17.29,7.26-25.68,11.16-8.38,3.35-17.29,7.26-25.69,10.61-8.92,3.91-17.29,7.26-25.69,11.17-8.94,3.91-17.31,7.26-25.68,11.17-8.95,3.35-17.32,7.26-25.69,11.17-8.37,3.35-16.74,6.7-25.14,10.61-8.91,3.91-17.29,7.26-25.68,11.17-8.92,3.91-17.29,7.26-25.69,11.17-8.92,3.91-17.29,7.26-25.69,11.17-8.94,3.9-17.31,7.26-25.68,11.16-8.95,3.91-17.86,7.82-25.69,11.17-9.49,4.47-17.86,8.38-25.14,11.17-10,5-19,8.94-25.68,12.29-12.85,6.14-20.65,10-21.76,11.17h862.22V307.7ZM572.4,939.29c7.82-3.35,16.2-7.82,25.68-11.73,8.4-3.91,16.77-7.82,25.69-11.72,8.4-3.91,16.77-7.82,25.69-11.73a215.4,215.4,0,0,1,25.68-11.73l25.14-11.72c8.37-3.91,17.32-7.82,25.69-11.73,8.94-4.47,17.31-8.38,25.68-11.73,9.49-4.47,17.89-8.37,25.69-11.73,10.06-5,19-8.93,25.69-12.28,3.35-1.68,6.7-2.79,8.94-3.91L803,820.34l-25.69-25.13-25.69-25.68L726,744.4l-25.69-25.69-25.14-24.57-21.76-21.78c-1.12,2.79-2.23,5.58-3.92,8.93-6.68,15.64-15.63,37.42-25.69,62-8.37,19.54-16.74,41.32-25.69,63.1-8.37,21.22-17.31,43-25.68,63.11-9.49,23.45-18.43,45.23-25.69,62-3.9,9.5-7.82,17.87-10.6,24,1.11-.56,5-2.24,10.6-4.47C552.85,948.23,561.79,944.32,572.4,939.29ZM803,820.34l-25.69-25.13-25.69-25.68L726,744.4l-25.69-25.69-25.14-24.57-21.76-21.78c-1.12,2.79-2.23,5.58-3.92,8.93-6.68,15.64-15.63,37.42-25.69,62-8.37,19.54-16.74,41.32-25.69,63.1-8.37,21.22-17.31,43-25.68,63.11-9.49,23.45-18.43,45.23-25.69,62-3.9,9.5-7.82,17.87-10.6,24,1.11-.56,5-2.24,10.6-4.47,6.14-2.79,15.08-6.7,25.69-11.73,7.82-3.35,16.2-7.82,25.68-11.73,8.4-3.91,16.77-7.82,25.69-11.72,8.4-3.91,16.77-7.82,25.69-11.73a215.4,215.4,0,0,1,25.68-11.73l25.14-11.72c8.37-3.91,17.32-7.82,25.69-11.73,8.94-4.47,17.31-8.38,25.68-11.73,9.49-4.47,17.89-8.37,25.69-11.73,10.06-5,19-8.93,25.69-12.28,3.35-1.68,6.7-2.79,8.94-3.91Zm0,0-25.69-25.13-25.69-25.68L726,744.4l-25.69-25.69-25.14-24.57-21.76-21.78c-1.12,2.79-2.23,5.58-3.92,8.93-6.68,15.64-15.63,37.42-25.69,62-8.37,19.54-16.74,41.32-25.69,63.1-8.37,21.22-17.31,43-25.68,63.11-9.49,23.45-18.43,45.23-25.69,62-3.9,9.5-7.82,17.87-10.6,24,1.11-.56,5-2.24,10.6-4.47,6.14-2.79,15.08-6.7,25.69-11.73,7.82-3.35,16.2-7.82,25.68-11.73,8.4-3.91,16.77-7.82,25.69-11.72,8.4-3.91,16.77-7.82,25.69-11.73a215.4,215.4,0,0,1,25.68-11.73l25.14-11.72c8.37-3.91,17.32-7.82,25.69-11.73,8.94-4.47,17.31-8.38,25.68-11.73,9.49-4.47,17.89-8.37,25.69-11.73,10.06-5,19-8.93,25.69-12.28,3.35-1.68,6.7-2.79,8.94-3.91Z"/><path class="cls-2" d="M1171.06,319.42c-1.12,1.12-4.48,7.82-9.52,18.43-6.14,13.41-15,32.95-25.69,57-7.8,17.31-16.19,36.85-25.68,58.63-8.37,18.43-16.75,38-25.69,58.64-8.37,19-16.74,38.53-25.69,58.63-8.37,19.55-17.31,40.21-25.68,60.31-8.37,19.55-16.74,39.09-25.14,58.08-8.92,20.67-17.29,40.77-25.69,59.75-8.91,21.78-17.86,41.89-25.68,60.32-10,23.45-19,44.67-25.69,60.87S919.19,898,915.83,905.23L585.24,574.63c2.81-.55,7.28-2.79,12.84-5,6.71-3.35,15.66-7.26,25.69-11.73,7.83-3.35,16.2-7.26,25.69-11.73,7.82-3.35,16.77-7.26,25.68-11.17,7.83-3.35,16.2-7.26,25.14-11.17,8.37-3.91,16.74-7.26,25.69-11.16,8.37-3.91,16.74-7.82,25.68-11.73,8.4-3.91,16.77-7.26,25.69-11.17,8.4-3.91,16.77-7.82,25.69-11.17,8.39-3.91,16.77-7.82,25.68-11.73,8.4-3.91,17.32-7.82,25.69-11.72,8.4-3.35,16.77-7.26,25.14-11.17,8.37-3.35,17.31-7.26,25.68-11.17s17.32-7.26,25.69-11.17,17.32-7.82,25.69-11.73c8.39-3.35,17.31-7.26,25.68-11.16,9-3.91,17.32-7.26,25.69-11.17,8.94-3.91,17.34-7.26,25.14-11.17,8.94-3.35,17.31-7.26,25.68-11.17,9-3.35,17.32-7.26,25.69-10.61,8.94-4.47,17.89-7.82,25.69-11.17,9.49-4.47,18.43-7.82,25.68-11.17,11.18-4.47,19.55-7.82,25.69-10.61C1168.82,319.42,1172.17,318.31,1171.06,319.42Z"/><line class="cls-2" x1="585.25" y1="574.63" x2="437.26" y2="426.65"/><polyline class="cls-2" points="915.84 905.23 915.84 905.79 939.85 929.24"/></g></g></svg>