<svg xmlns="http://www.w3.org/2000/svg" viewBox="0 0 1320.17 1443"><defs><style>.cls-1{fill:#2836F6;}</style></defs><g id="图层_2" data-name="图层 2"><g id="图层_1-2" data-name="图层 1"><path class="cls-1" d="M1300,762.26l-.55.56-11.72,7.26-22.36,14.52-11.15,7.26-11.73,7.82L1220.2,814.2l-11.73,7.26-11.18,7.26L1175,843.24l-11.72,7.82-22.33,14.52-11.73,7.26-33.51,21.78-11.75,7.81-11.16,7.26L1061.58,917l-11.15,6.7-11.72,7.82-11.18,7.26L1016.35,946l-11.73,7.82-11.15,7.26-11.18,6.7L971.14,975l-11.73,7.82-11.18,7.26-11.18,7.26-11.72,7.82-11.15,6.7L903,1019.15l-11.15,7.26-11.76,7.82-11.15,7.25L846.58,1056l-11.72,7.26-22.34,14.52-11.72,7.82-33.51,21.78-11.73,7.26-11.15,7.26-10.06,6.7c-.55,0-.55.56-1.12.56-3.35,2.23-7.25,4.47-11.72,5a36.24,36.24,0,0,1-11.16,1.67,76.7,76.7,0,0,1-11.18-1.11,44.78,44.78,0,0,1-26.8-19.55l-4.47-6.14a44.69,44.69,0,0,1,14-62l17.31-11.17,11.18-7.26,11.16-7.26,11.72-7.26,22.33-14.52,11.73-7.26,33.51-21.78,11.72-7.81,11.18-7.26,11.16-6.71L846.58,941l22.36-14.52,11.15-7.26,11.76-7.26L903,904.67l22.33-14.52,11.72-7.26,11.18-7.26,11.18-7.26,11.73-7.26,11.15-7.26,11.18-7.26,11.15-7.26,11.73-7.82,11.18-6.7,11.18-7.26,11.72-7.82,22.33-14.52,11.16-7.26,11.75-7.26,33.51-21.78,11.73-7.25,22.33-14.52,11.72-7.26,33.51-21.78,11.73-7.82,11.15-6.7,11.18-7.26,8.37-5.58,3.36-1.68a27.74,27.74,0,0,1,11.15-4.47,69.18,69.18,0,0,1,11.18-1.11c3.93,0,7.25,1.11,11.18,2.23s8.37,2.79,11.72,5.58a38.38,38.38,0,0,1,13.39,13.41v5.58C1326.3,720.94,1320.71,748.86,1300,762.26Z"/><path class="cls-1" d="M1145.9,918.07l-20.1,12.84-20.64,14L1085,957.72l-20.66,14-20.1,12.85-20.1,13.4-20.66,13.4-20.1,13.4-20.67,14-20.1,12.85-20.12,13.4-20.64,13.4-20.1,13.4-20.67,13.41L841,1118.55,820.9,1132l-20.67,13.41-20.1,13.4-20.67,13.4-17.86,11.73a4.2,4.2,0,0,1-2.23,1.11,74.94,74.94,0,0,1-20.1,10,138.81,138.81,0,0,1-20.67,5,120.45,120.45,0,0,1-20.1,0,87.31,87.31,0,0,1-11.72-2.23,48.13,48.13,0,0,1-8.37-2.8,57.58,57.58,0,0,1-20.67-9.49,95.37,95.37,0,0,1-20.12-16.19,92,92,0,0,1-12.27-16.75L597,1140.33l-.57-.56c-16.74-27.92-19-62-5-91.58v-5a82.28,82.28,0,0,1,5.58-9.49,99.94,99.94,0,0,1,20.65-22.9c1.69-1.11,3.35-2.79,5-3.91l15.08-10.05,20.67-13.4,20.09-12.85,20.1-13.4,20.67-13.4,20.1-12.85,20.09-12.84,20.67-14,20.1-12.84,20.67-13.41L841,864.46l20.12-12.84,20.67-13.41,20.1-12.84,20.64-14,40.22-25.69,20.67-13.4,20.1-13.41,20.66-13.4,20.1-12.84,20.1-13.4,20.66-13.4L1105.16,693l20.64-13.4,20.1-13.4,31.84-20.67V139.05c0-34.06-11.72-65.34-31.84-89.35a131.93,131.93,0,0,0-20.1-19.55,134.56,134.56,0,0,0-20.64-14c-6.16-3.35-13.42-6.14-20.13-8.93a84.73,84.73,0,0,0-20.66-4.47A83.08,83.08,0,0,0,1044.27,0h-908a27.1,27.1,0,0,0-6.7.56,82.59,82.59,0,0,0-20.1,2.79C102.18,4.47,96,6.7,89.34,8.93A143.42,143.42,0,0,0,68.67,19C27.36,43-.56,87.68,0,139.05V1304.51c0,36.86,15.05,72,40.74,98.28A128,128,0,0,0,68.67,1424a99,99,0,0,0,20.67,9.49,91.91,91.91,0,0,0,20.12,6.14,82.59,82.59,0,0,0,20.1,2.79,60.57,60.57,0,0,0,10.06.56h905.77c6.13,0,12.84-.56,19-1.11,7.28-1.12,14-2.8,20.66-4.47a109.71,109.71,0,0,0,20.13-8.38,111.66,111.66,0,0,0,20.64-12.28c7.28-4.47,14-10.62,20.1-17.32a137.11,137.11,0,0,0,38-94.93V892.94ZM166.39,232.87h867.27v82.65H166.39Zm0,252.41h867.27v82.09H166.39Zm-1.66,255.77h478V823.7h-478ZM373.6,1139.21l20.1-.56h20.66l11.73-.55c2.78,0,5.56.55,8.37.55a42.71,42.71,0,0,1,20.67,11.73,41.15,41.15,0,0,1,0,57.52,42.71,42.71,0,0,1-20.67,11.73c-2.81,0-5.59.55-8.37.55H358.52v36.3a37.16,37.16,0,0,1-5,19c-3.9,8.94-11.73,15.64-20.64,19a37.7,37.7,0,0,1-15.66,3.35h-4.47v-.56a34.27,34.27,0,0,1-20.67-8.38,39.45,39.45,0,0,1-16.17-32.39v-36.3H207.73c-6.13,0-12.27-1.11-17.31-3.91a39.2,39.2,0,0,1-20.1-20.1,33.85,33.85,0,0,1-3.93-16.75,43.78,43.78,0,0,1,3.93-17.31c4.47-8.38,11.18-15.64,20.1-19.55a36.37,36.37,0,0,1,17.31-4.46h68.69v-10.61H207.73c-6.13,0-12.27-1.12-17.31-4.47a33.41,33.41,0,0,1-11.73-7.82,36.73,36.73,0,0,1-8.37-12.29,33.85,33.85,0,0,1-3.93-16.75,41.09,41.09,0,0,1,3.93-16.75c4.47-8.94,11.18-16.2,20.1-20.11a36.37,36.37,0,0,1,17.31-4.46h16.2l-12.84-15.64-20.67-25.13-10.06-12.28a42.94,42.94,0,0,1,8.94-58.08c.57,0,.57-.56,1.12-.56,6.71-4.47,13.41-7.26,20.67-7.26a48.78,48.78,0,0,1,20.09,2.79A43,43,0,0,1,247.38,941l4.47,5.58L292,995.69l20.67,25.13,7.83,9.5,12.3-14.52,20.64-25.13,40.22-48,1.66-2.23a40,40,0,0,1,19-12.85,25.4,25.4,0,0,1,8.92-1.67c3.93-.56,7.28,0,11.18.56a42.35,42.35,0,0,1,19,8.93l1.69,1.68A41.33,41.33,0,0,1,459,992.9l-3.9,4.47-20.67,23.45-20.1,22.9v2.79h13.39a14.17,14.17,0,0,1,6.71,1.12c7.83.56,14.53,4.46,20.67,10a27.8,27.8,0,0,1,8.37,9.49,42,42,0,0,1,0,41.33,27.8,27.8,0,0,1-8.37,9.49c-6.14,5.59-12.84,9.5-20.67,10a14.17,14.17,0,0,1-6.71,1.12H358.52v10.61Z"/></g></g></svg>